<svg width="187" height="47" viewBox="0 0 187 47" fill="none" xmlns="http://www.w3.org/2000/svg">
<path d="M23.5945 0.336853V14.6694H26.0611V20.164H19.8529H8.11017H1.57959V14.9483L3.65141 14.5897C3.91582 14.4049 4.18748 14.1731 4.46637 13.8942C4.74527 13.6153 5.01693 13.2676 5.28134 12.8583C5.54575 12.449 5.77032 11.9347 5.95504 11.3262C6.13977 10.7141 6.2593 9.97154 6.31363 9.09863L6.95473 0.336853H23.5945ZM16.2308 5.91121H13.0072L12.7283 9.73249C12.6486 10.6597 12.5218 11.5254 12.348 12.3186C12.1777 13.1155 11.8916 13.7783 11.4932 14.3108H16.2308V5.91121Z" fill="white"/>
<path d="M46.2941 9.97154C46.8772 10.1852 47.3626 10.4714 47.7465 10.83C48.1305 11.1886 48.4383 11.5797 48.6629 12.0035C48.8875 12.4273 49.0468 12.8475 49.141 13.2568C49.2352 13.666 49.2823 14.0319 49.2823 14.3506C49.2823 15.2779 49.0831 16.1001 48.6846 16.8172C48.2862 17.5344 47.7356 18.1393 47.033 18.6283C46.3303 19.1173 45.4936 19.4976 44.5265 19.762C43.5558 20.03 42.5018 20.1604 41.3608 20.1604H30.0962V0.336853H40.8465C43.5775 0.336853 45.595 0.851186 46.8953 1.86899C48.1956 2.89041 48.8476 4.2523 48.8476 5.95105C48.8476 6.56318 48.6701 7.24775 48.3116 8.00114C47.953 8.75815 47.2829 9.3739 46.3013 9.85564V9.97154H46.2941ZM41.158 6.82759C41.158 6.05971 40.7595 5.67215 39.9627 5.67215H37.5359V7.94319H39.9627C40.3611 7.94319 40.6618 7.83815 40.8573 7.62444C41.0602 7.41074 41.158 7.14633 41.158 6.82759ZM41.7158 13.0793C41.7158 12.7605 41.6107 12.4889 41.397 12.2643C41.1833 12.0397 40.8791 11.9275 40.4806 11.9275H37.5323V14.4339H40.4806C40.8791 14.4339 41.1833 14.2927 41.397 14.0138C41.6107 13.7349 41.7158 13.4197 41.7158 13.0793Z" fill="white"/>
<path d="M59.5946 11.8442L63.7744 5.9909L67.7949 0.45639H72.3732V20.164H66.8423V9.21816H66.6829L63.4593 13.7566L58.8013 20.1677H53.9043V0.45639H59.4787V11.8442H59.5946Z" fill="white"/>
<path d="M85.4773 12.0398C84.7601 12.0398 84.1444 12.2752 83.6264 12.7388C83.1084 13.2024 82.6629 13.992 82.2935 15.104C82.0544 15.9552 81.8081 16.7955 81.5582 17.6322C81.3083 18.4689 81.062 19.3129 80.8229 20.1604H76.2446C76.5634 19.0992 76.8894 18.0415 77.2226 16.9947C77.5522 15.948 77.8782 14.8794 78.1969 13.7928C78.4903 12.8112 78.8598 11.9709 79.3125 11.2646C79.7617 10.5619 80.4535 10.1056 81.3843 9.89187C80.6418 9.68179 80.0297 9.24714 79.5552 8.59879C79.0771 7.94682 78.6931 7.14634 78.3998 6.18649L76.6068 0.45639H81.0258L82.6195 5.63232C82.8042 6.2698 83.036 6.78051 83.3149 7.16445C83.5938 7.54839 83.898 7.83816 84.2313 8.04099C84.5645 8.24383 84.9086 8.36698 85.2672 8.42131C85.6258 8.47564 85.9771 8.50099 86.3212 8.50099H88.4292V0.45639H92.9279V8.50099H94.9598C95.7277 8.50099 96.4594 8.26194 97.1476 7.78382C97.8394 7.30571 98.3972 6.40382 98.8209 5.07814L100.255 0.460012H104.674L102.881 6.19012C102.588 7.14634 102.204 7.95044 101.726 8.60241C101.248 9.25076 100.636 9.68179 99.8931 9.89549C100.824 10.1092 101.512 10.5692 101.965 11.2682C102.414 11.9746 102.787 12.8149 103.08 13.7965C103.399 14.8867 103.725 15.9516 104.058 16.9984C104.392 18.0451 104.714 19.1028 105.033 20.164H100.455C100.215 19.3165 99.9691 18.4725 99.7192 17.6358C99.4693 16.7991 99.223 15.9588 98.9839 15.1076C98.5565 13.8327 98.0422 13.0068 97.4301 12.6193C96.8179 12.2353 96.1044 12.0398 95.2822 12.0398H92.9315V20.1604H88.4329V12.0398H85.4773Z" fill="white"/>
<path d="M111.835 11.4023V11.721C111.835 12.4961 111.94 13.235 112.154 13.9268C112.368 14.6223 112.687 15.2308 113.11 15.7487C113.534 16.2703 114.067 16.6796 114.704 16.973C115.342 17.2664 116.084 17.4149 116.932 17.4149C117.569 17.4149 118.304 17.2519 119.141 16.9368C119.978 16.618 120.728 16.1544 121.39 15.5423L123.498 17.8858C122.568 18.7768 121.521 19.4179 120.355 19.8127C119.185 20.2039 117.993 20.3995 116.772 20.3995C115.762 20.3995 114.762 20.2618 113.766 19.9829C112.774 19.704 111.875 19.1933 111.078 18.4508C110.282 17.7083 109.637 16.6869 109.148 15.3865C108.655 14.0862 108.413 12.4164 108.413 10.37C108.413 8.43217 108.666 6.80949 109.17 5.49106C109.673 4.17987 110.325 3.12947 111.118 2.34711C111.915 1.56474 112.803 1.00694 113.788 0.677335C114.769 0.344105 115.726 0.17749 116.653 0.17749C117.739 0.17749 118.761 0.373082 119.717 0.75702C120.673 1.14096 121.51 1.706 122.224 2.44852C122.941 3.19105 123.502 4.10018 123.915 5.17594C124.324 6.25169 124.531 7.47957 124.531 8.85958V11.4059H111.835V11.4023ZM116.497 3.28522C115.142 3.28522 114.052 3.74884 113.23 4.67609C112.408 5.60696 111.944 6.93264 111.835 8.65674H121.112C121.032 6.88193 120.579 5.53814 119.757 4.63625C118.935 3.73436 117.848 3.28522 116.497 3.28522Z" fill="white"/>
<path d="M142.181 20.1641V10.9676H131.869V20.1641H129.362V0.420197H131.869V8.93929H142.181V0.420197H144.687V20.1641H142.181Z" fill="white"/>
<path d="M164.518 20.164V3.40113L161.295 7.82005L152.138 20.1604H150.425V0.45639H152.178V17.4982L155.8 12.5613L164.757 0.45639H166.271V20.164H164.518Z" fill="white"/>
<path d="M179.734 20.5516C178.745 20.5516 177.738 20.414 176.739 20.1496C175.728 19.8815 174.801 19.3708 173.986 18.6319C173.167 17.8894 172.494 16.8535 171.986 15.5459C171.479 14.2384 171.222 12.507 171.222 10.4098C171.222 8.38873 171.465 6.68636 171.943 5.35706C172.421 4.02414 173.048 2.95925 173.812 2.19137C174.573 1.42712 175.438 0.880188 176.376 0.572312C177.307 0.264437 178.242 0.108688 179.151 0.108688C180.571 0.108688 181.78 0.358611 182.755 0.858455C183.733 1.35468 184.54 2.03563 185.156 2.87957C185.768 3.71989 186.218 4.71957 186.486 5.84604C186.75 6.96888 186.884 8.15329 186.884 9.37393V10.2794H172.356C172.363 11.5073 172.475 12.6809 172.693 13.7711C172.914 14.8903 173.308 15.8973 173.87 16.7557C174.431 17.6177 175.188 18.2987 176.119 18.7877C177.054 19.2803 178.242 19.5338 179.651 19.5338C180.48 19.5338 181.324 19.3926 182.164 19.1209C182.997 18.8492 183.765 18.4725 184.446 18.0017L184.53 17.9437L185.269 18.8275L185.171 18.8963C183.595 19.9974 181.762 20.5516 179.734 20.5516ZM185.671 9.18558C185.555 6.49439 184.935 4.47327 183.831 3.17658C182.719 1.86901 181.165 1.20255 179.216 1.20255C177.137 1.20255 175.503 1.90523 174.363 3.29248C173.232 4.66887 172.588 6.65014 172.443 9.18558H185.671Z" fill="white"/>
<path d="M179.155 0.220976C180.556 0.220976 181.741 0.463655 182.708 0.956255C183.675 1.44523 184.461 2.11169 185.07 2.94477C185.678 3.78146 186.116 4.7558 186.381 5.8714C186.645 6.98699 186.779 8.15329 186.779 9.37393V10.1708H172.251C172.251 11.4458 172.363 12.6519 172.588 13.7928C172.813 14.9338 173.211 15.9407 173.783 16.8173C174.356 17.6938 175.116 18.3856 176.072 18.8855C177.025 19.3889 178.22 19.6425 179.655 19.6425C180.502 19.6425 181.353 19.5012 182.201 19.2223C183.048 18.947 183.82 18.5667 184.512 18.0886L185.109 18.8058C183.541 19.896 181.752 20.4393 179.734 20.4393C178.753 20.4393 177.764 20.3053 176.768 20.0409C175.772 19.7765 174.87 19.2803 174.062 18.5486C173.254 17.817 172.595 16.8028 172.092 15.5025C171.588 14.2021 171.335 12.5034 171.335 10.4062C171.335 8.39235 171.574 6.71896 172.048 5.38966C172.523 4.06399 173.138 3.02445 173.892 2.26382C174.645 1.50319 175.486 0.977988 176.413 0.673734C177.344 0.373103 178.253 0.220976 179.155 0.220976ZM172.327 9.29424H185.783C185.678 6.50888 185.055 4.4443 183.914 3.10414C182.773 1.76398 181.208 1.09389 179.216 1.09389C177.09 1.09389 175.446 1.80382 174.279 3.22367C173.11 4.64352 172.461 6.66825 172.327 9.29424ZM179.155 3.05176e-05C178.235 3.05176e-05 177.289 0.159401 176.348 0.470899C175.388 0.786018 174.511 1.34019 173.74 2.11532C172.965 2.89406 172.327 3.97343 171.842 5.32084C171.36 6.66463 171.114 8.37786 171.114 10.4098C171.114 12.5251 171.375 14.2637 171.885 15.5858C172.396 16.9078 173.081 17.9618 173.914 18.7152C174.743 19.465 175.685 19.983 176.713 20.2546C177.717 20.5226 178.735 20.6603 179.734 20.6603C181.788 20.6603 183.639 20.0989 185.233 18.9869L185.428 18.8492L185.276 18.6645L184.678 17.9474L184.552 17.7916L184.389 17.9075C183.719 18.3711 182.962 18.7442 182.136 19.0122C181.31 19.2839 180.473 19.4215 179.655 19.4215C178.264 19.4215 177.094 19.1752 176.174 18.6899C175.257 18.2081 174.515 17.5381 173.964 16.6941C173.41 15.8429 173.019 14.8505 172.802 13.7458C172.592 12.6917 172.483 11.5617 172.468 10.3845H186.779H187V10.1635V9.36669C187 8.13519 186.866 6.9399 186.598 5.81344C186.326 4.67611 185.874 3.66194 185.251 2.80713C184.624 1.9487 183.802 1.25689 182.809 0.75342C181.821 0.257197 180.589 3.05176e-05 179.155 3.05176e-05ZM172.563 9.07692C172.718 6.62116 173.352 4.69785 174.45 3.36131C175.569 2.00303 177.173 1.31122 179.216 1.31122C181.132 1.31122 182.654 1.96319 183.748 3.2454C184.82 4.50226 185.428 6.46541 185.555 9.0733H172.563V9.07692Z" fill="white"/>
<path d="M5.30632 31.4359V35C7.62082 35.163 9.29784 36.6263 9.29784 39.1074C9.29784 41.7189 7.52303 43.0989 5.30632 43.2474V46.3515H3.99151V43.2619C1.6915 43.117 0 41.6718 0 39.1907C0 36.5611 1.7567 35.1811 3.99151 35.0036V31.4395H5.30632V31.4359ZM3.99151 35.9888C2.38332 36.2025 1.43072 37.5173 1.43072 39.1436C1.43072 40.7844 2.41592 42.0666 3.99151 42.2659V35.9888ZM5.30632 42.2622C6.90003 42.0485 7.86712 40.7337 7.86712 39.1074C7.86712 37.463 6.89641 36.217 5.30632 35.9852V42.2622Z" fill="white"/>
<path d="M19.9432 39.0567C19.9432 41.9978 17.9076 43.28 15.9842 43.28C13.8327 43.28 12.1738 41.7044 12.1738 39.1907C12.1738 36.5285 13.916 34.9674 16.1146 34.9674C18.3965 34.9674 19.9432 36.6263 19.9432 39.0567ZM13.6335 39.14C13.6335 40.8822 14.6368 42.1934 16.0494 42.1934C17.4294 42.1934 18.4654 40.8967 18.4654 39.1038C18.4654 37.7564 17.7916 36.0468 16.082 36.0468C14.3724 36.0468 13.6335 37.6296 13.6335 39.14Z" fill="white"/>
<path d="M23.4094 37.7455C23.4094 36.7277 23.3768 35.9055 23.3442 35.1485H24.6409L24.7061 36.5104H24.7387C25.3291 35.5397 26.2672 34.9674 27.5639 34.9674C29.4873 34.9674 30.9325 36.5937 30.9325 39.0096C30.9325 41.8674 29.1902 43.28 27.3176 43.28C26.2672 43.28 25.3472 42.82 24.8691 42.0304H24.8365V46.3516H23.4058V37.7455H23.4094ZM24.8365 39.8644C24.8365 40.0781 24.8691 40.2737 24.9017 40.4548C25.1661 41.4581 26.0354 42.1463 27.0713 42.1463C28.5999 42.1463 29.4873 40.8967 29.4873 39.0748C29.4873 37.4811 28.6506 36.1192 27.1221 36.1192C26.1368 36.1192 25.2168 36.8255 24.9379 37.9085C24.8872 38.0896 24.8402 38.3033 24.8402 38.4989V39.8644H24.8365Z" fill="white"/>
<path d="M34.7572 35.1485L36.4994 39.8463C36.6806 40.3715 36.8761 40.9945 37.0102 41.4726H37.0428C37.1913 40.9945 37.3543 40.3896 37.5535 39.8137L39.1291 35.1485H40.6576L38.488 40.817C37.4521 43.5444 36.7458 44.9389 35.7606 45.7937C35.0542 46.4167 34.3479 46.663 33.9857 46.7282L33.6235 45.5112C33.9857 45.3953 34.4602 45.1671 34.8876 44.8049C35.2824 44.4934 35.775 43.9356 36.1046 43.1967C36.1698 43.0482 36.2206 42.9323 36.2206 42.8526C36.2206 42.7693 36.188 42.657 36.1228 42.4759L33.1816 35.1485H34.7572Z" fill="white"/>
<path d="M43.6129 35.1485H45.3877L46.8329 39.1581C47.0285 39.7485 47.3762 40.7192 47.5573 41.3422H47.5899C47.771 40.7518 48.2129 39.4877 48.5244 38.6148L49.8066 35.1485H51.5959L52.1537 43.0989H50.7737L50.5926 39.303C50.5419 38.4482 50.4767 37.4304 50.4441 36.4597H50.3934C50.1797 37.1841 49.966 37.8216 49.5241 39.0386L47.9956 43.0482H46.9452L45.5326 39.1219C45.2863 38.3649 44.9422 37.2167 44.7429 36.4778H44.6777C44.6451 37.4123 44.5944 38.4663 44.5473 39.3356L44.3518 43.0953H43.0225L43.6129 35.1485Z" fill="white"/>
<path d="M62.191 35.1485V38.3504H65.9688V35.1485H67.3995V43.0989H65.9688V39.5022H62.191V43.0989H60.7603V35.1485H62.191Z" fill="white"/>
<path d="M72.2094 39.3863C72.242 41.3422 73.4916 42.1463 74.9368 42.1463C75.9727 42.1463 76.5957 41.9652 77.139 41.737L77.3853 42.7729C76.8746 43.0011 76.0053 43.2655 74.7412 43.2655C72.2927 43.2655 70.833 41.6573 70.833 39.2595C70.833 36.8617 72.2456 34.971 74.5601 34.971C77.1571 34.971 77.8453 37.2529 77.8453 38.7162C77.8453 39.0132 77.8127 39.2414 77.7946 39.3899H72.2094V39.3863ZM76.4472 38.354C76.4653 37.434 76.0705 36.0033 74.4442 36.0033C72.9809 36.0033 72.3434 37.3507 72.2275 38.354H76.4472Z" fill="white"/>
<path d="M87.4877 35.1485V42.0159L88.3099 42.034L88.2266 45.6308H87.0929L87.0277 43.1026H81.5258L81.4606 45.6308H80.3269L80.2617 42.034L80.9354 42.0159C81.2795 41.5052 81.5439 40.9655 81.725 40.3896C82.0365 39.4044 82.185 38.3359 82.185 37.2203V35.1521H87.4877V35.1485ZM83.4636 37.5644C83.4636 38.6148 83.3151 39.6326 83.0543 40.52C82.8913 41.0633 82.6595 41.5559 82.4132 41.9978H86.0751V36.2496H83.4636V37.5644Z" fill="white"/>
<path d="M91.6416 35.2463C92.1994 35.1485 93.2353 35.0652 94.1698 35.0652C95.4991 35.0652 97.7013 35.2789 97.7013 37.0537C97.7013 38.0389 96.9443 38.6474 96.0424 38.843V38.8756C97.2087 39.0386 98.0635 39.6978 98.0635 40.846C98.0635 42.9323 95.4339 43.1967 93.8764 43.1967C92.989 43.1967 92.069 43.1315 91.6416 43.0989V35.2463ZM93.0071 42.1463C93.4164 42.197 93.7134 42.2115 94.1734 42.2115C95.1441 42.2115 96.5893 41.9833 96.5893 40.8315C96.5893 39.6833 95.4411 39.4334 94.0611 39.4334H93.0107V42.1463H93.0071ZM93.0216 38.4844H94.1046C95.1731 38.4844 96.2742 38.1729 96.2742 37.2348C96.2742 36.4452 95.586 36.0685 94.1372 36.0685C93.6591 36.0685 93.3657 36.1011 93.0216 36.1337V38.4844Z" fill="white"/>
<path d="M102.863 35.1485V38.4989C102.863 39.763 102.845 40.5526 102.78 41.6863L102.83 41.7044C103.309 40.7337 103.587 40.1759 104.113 39.2559L106.594 35.1485H108.285V43.0989H106.905V39.7304C106.905 38.4337 106.938 37.76 107.003 36.4778H106.952C106.442 37.4956 106.098 38.1367 105.638 38.9408C104.881 40.1723 104.011 41.7008 103.156 43.0953H101.498V35.1485H102.863Z" fill="white"/>
<path d="M112.947 35.1485L115.577 38.6148H115.874V35.1485H117.254V38.6148H117.532L120.162 35.1485H121.821L118.684 38.7633C119.883 38.8937 120.59 39.6 121.068 40.8641C121.347 41.6356 121.611 42.4723 121.937 43.0989H120.492C120.227 42.6208 119.999 41.9652 119.767 41.277C119.275 39.9803 118.536 39.5855 117.5 39.5855H117.254V43.1025H115.874V39.5855H115.609C114.494 39.5855 113.82 39.9948 113.327 41.2951C113.063 41.9833 112.849 42.6099 112.57 43.1025H111.176C111.505 42.4614 111.766 41.6247 112.045 40.8858C112.538 39.6036 113.244 38.8973 114.443 38.7669L111.288 35.1521H112.947V35.1485Z" fill="white"/>
<path d="M126.203 35.1485V38.4989C126.203 39.763 126.185 40.5526 126.12 41.6863L126.171 41.7044C126.649 40.7337 126.928 40.1759 127.453 39.2559L129.934 35.1485H131.626V43.0989H130.246V39.7304C130.246 38.4337 130.278 37.76 130.343 36.4778H130.293C129.782 37.4956 129.438 38.1367 128.978 38.9408C128.221 40.1723 127.352 41.7008 126.497 43.0953H124.838V35.1485H126.203Z" fill="white"/>
<path d="M135.701 35.1485H137.476L138.921 39.1581C139.116 39.7485 139.464 40.7192 139.645 41.3422H139.678C139.859 40.7518 140.301 39.4877 140.612 38.6148L141.894 35.1485H143.684L144.242 43.0989H142.862L142.68 39.303C142.63 38.4482 142.565 37.4304 142.532 36.4597H142.481C142.268 37.1841 142.054 37.8216 141.612 39.0386L140.083 43.0482H139.033L137.62 39.1219C137.374 38.3649 137.03 37.2167 136.831 36.4778H136.766C136.733 37.4123 136.682 38.4663 136.635 39.3356L136.44 43.0953H135.11L135.701 35.1485Z" fill="white"/>
<path d="M154.952 39.0567C154.952 41.9978 152.916 43.28 150.993 43.28C148.842 43.28 147.183 41.7044 147.183 39.1907C147.183 36.5285 148.925 34.9674 151.123 34.9674C153.405 34.9674 154.952 36.6263 154.952 39.0567ZM148.642 39.14C148.642 40.8822 149.646 42.1934 151.058 42.1934C152.438 42.1934 153.474 40.8967 153.474 39.1038C153.474 37.7564 152.8 36.0468 151.091 36.0468C149.381 36.0468 148.642 37.6296 148.642 39.14Z" fill="white"/>
<path d="M164.084 42.8019C163.707 42.9975 162.867 43.2619 161.802 43.2619C159.404 43.2619 157.843 41.6356 157.843 39.2052C157.843 36.7567 159.52 34.9855 162.113 34.9855C162.968 34.9855 163.721 35.1992 164.116 35.3948L163.787 36.5104C163.442 36.3148 162.899 36.1337 162.11 36.1337C160.288 36.1337 159.302 37.4811 159.302 39.14C159.302 40.98 160.487 42.1137 162.062 42.1137C162.885 42.1137 163.424 41.9 163.837 41.7189L164.084 42.8019Z" fill="white"/>
<path d="M173.052 35.1485V36.2967H170.571V43.0953H169.14V36.2967H166.659V35.1485H173.052Z" fill="white"/>
<path d="M177.289 35.1485V38.4989C177.289 39.763 177.271 40.5526 177.206 41.6863L177.257 41.7044C177.735 40.7337 178.014 40.1759 178.539 39.2559L181.02 35.1485H182.712V43.0989H181.332V39.7304C181.332 38.4337 181.364 37.76 181.429 36.4778H181.379C180.868 37.4956 180.524 38.1367 180.064 38.9408C179.307 40.1723 178.438 41.7008 177.583 43.0953H175.924V35.1485H177.289Z" fill="white"/>
</svg>
