<svg width="211" height="55" viewBox="0 0 211 55" fill="none" xmlns="http://www.w3.org/2000/svg">
<path d="M48.4486 0H46.2886V55H48.4486V0Z" fill="#B30A0A"/>
<path d="M65.295 36.6181L58.2725 18.1548H62.901L65.9358 26.9439C67.082 30.2704 67.5668 32.0573 67.8652 33.234H67.9127C68.184 32.1692 68.4213 31.386 70.0388 26.6082L72.9719 18.1514H77.4445L70.2999 36.6147H65.295V36.6181Z" fill="white"/>
<path d="M83.6697 18.1514H79.4854V36.6147H83.6697V18.1514Z" fill="white"/>
<path d="M90.7741 31.0842C91.2692 32.6779 92.456 33.7256 95.3213 33.7256C98.0001 33.7256 98.7766 32.8474 98.7766 31.6572C98.7766 30.3856 97.9797 29.6668 94.3481 29.0089C88.3666 27.9137 87.2781 25.8317 87.2781 23.3563C87.2781 19.6705 90.591 17.7851 94.6668 17.7851C100.584 17.7851 102.188 21.0438 102.384 23.1902H98.1967C97.9526 22.2747 97.3761 21.0506 94.5346 21.0506C92.5441 21.0506 91.5303 21.7287 91.5303 22.9223C91.5303 23.9871 92.2424 24.5262 95.4772 25.1467C102.028 26.4047 103.052 28.524 103.052 31.2028C103.052 34.4038 100.709 36.9877 94.9245 36.9877C89.533 36.9877 87.1052 34.4106 86.5796 31.0842H90.7741Z" fill="white"/>
<path d="M110.628 18.1514H106.443V36.6147H110.628V18.1514Z" fill="white"/>
<path d="M136.303 36.6181V18.1514H141.254C146.096 26.0691 148.032 28.9513 149.111 31.1452H149.161C148.992 29.2056 149.016 25.7503 149.016 22.7121V18.1514H152.847V36.6147H148.205C146.578 33.8647 141.064 24.689 140.04 22.5798H139.989C140.135 24.8585 140.135 27.4831 140.135 30.762V36.6147H136.303V36.6181Z" fill="white"/>
<path d="M123.652 17.5614C118.227 17.5614 113.829 21.9593 113.829 27.3847C113.829 32.8101 118.227 37.2081 123.652 37.2081C129.077 37.2081 133.475 32.8101 133.475 27.3847C133.472 21.9593 129.074 17.5614 123.652 17.5614ZM123.652 21.4643C126.917 21.4643 129.572 24.1193 129.572 27.3847C129.572 30.6501 126.917 33.3052 123.652 33.3052C120.387 33.3052 117.732 30.6501 117.732 27.3847C117.728 24.1193 120.387 21.4643 123.652 21.4643Z" fill="white"/>
<path d="M35.8619 28.8326H26.2454V33.0339H36.4655L36.4587 36.6215H22.061V18.1581H36.3841V21.7491H26.2454V25.2451H35.8619V28.8326Z" fill="white"/>
<path d="M9.22996 18.148H0V36.6113H9.22996C14.3298 36.6113 18.4599 32.4778 18.4599 27.3813C18.4633 22.2814 14.3298 18.148 9.22996 18.148ZM9.22996 21.8135C12.2987 21.8135 14.7944 24.3092 14.7944 27.3779C14.7944 30.4467 12.2987 32.9424 9.22996 32.9424H3.66554V21.8135H9.22996Z" fill="white"/>
<path d="M166.675 22.1424L165.512 19.2907L164.342 22.1424H166.675ZM166.936 22.7494H164.085L163.393 24.4313H162.701L165.207 18.3785H165.811L168.316 24.4313H167.628L166.936 22.7494Z" fill="white"/>
<path d="M171.344 20.1961V20.803H171.083C170.727 20.803 170.422 20.9251 170.167 21.1726C169.913 21.4202 169.788 21.7423 169.788 22.139V24.4313H169.184V20.2842H169.788V20.8471C169.798 20.8302 169.815 20.8064 169.839 20.7759C169.862 20.7454 169.913 20.6945 169.998 20.6199C170.083 20.5453 170.174 20.4809 170.269 20.4232C170.368 20.3656 170.496 20.3147 170.659 20.2673C170.822 20.2198 170.991 20.1961 171.171 20.1961H171.344Z" fill="white"/>
<path d="M172.47 23.8853C172.063 23.4649 171.86 22.9562 171.86 22.356C171.86 21.7559 172.063 21.2472 172.474 20.8268C172.884 20.4063 173.369 20.1961 173.932 20.1961C174.254 20.1961 174.556 20.2673 174.837 20.4029C175.118 20.5419 175.315 20.681 175.437 20.82L175.62 21.02L175.186 21.4507C175.176 21.4337 175.159 21.41 175.135 21.3795C175.112 21.349 175.064 21.2913 174.986 21.2099C174.908 21.1286 174.827 21.0573 174.735 20.9963C174.644 20.9353 174.528 20.881 174.386 20.8335C174.244 20.7861 174.091 20.7623 173.935 20.7623C173.538 20.7623 173.196 20.9149 172.904 21.2235C172.613 21.5321 172.467 21.9085 172.467 22.3594C172.467 22.8104 172.613 23.1868 172.904 23.4954C173.196 23.804 173.538 23.9565 173.935 23.9565C174.176 23.9565 174.406 23.8989 174.623 23.7836C174.84 23.6683 174.996 23.553 175.095 23.4377L175.234 23.2682L175.664 23.6581C175.647 23.6819 175.62 23.7124 175.586 23.7531C175.553 23.7938 175.478 23.865 175.366 23.9599C175.254 24.0583 175.135 24.143 175.01 24.2176C174.885 24.2922 174.725 24.3601 174.532 24.4245C174.335 24.4889 174.139 24.5194 173.935 24.5194C173.365 24.516 172.877 24.3058 172.47 23.8853Z" fill="white"/>
<path d="M177.255 18.3819V20.8878C177.265 20.8708 177.282 20.8471 177.306 20.8166C177.33 20.7861 177.384 20.7284 177.465 20.647C177.547 20.5657 177.638 20.4944 177.733 20.4334C177.828 20.3724 177.953 20.3181 178.106 20.2673C178.262 20.2198 178.421 20.1927 178.591 20.1927C179.093 20.1927 179.496 20.3554 179.808 20.6776C180.12 20.9997 180.273 21.4303 180.273 21.9627V24.4279H179.669V21.9627C179.669 21.5999 179.564 21.3083 179.354 21.0878C179.144 20.8674 178.872 20.7555 178.543 20.7555C178.174 20.7555 177.869 20.8844 177.621 21.1455C177.374 21.4032 177.252 21.7355 177.252 22.1356V24.4279H176.648V18.3819H177.255Z" fill="white"/>
<path d="M181.663 20.2842H182.266V24.4313H181.663V20.2842ZM181.687 19.1788C181.612 19.1042 181.575 19.0126 181.575 18.9007C181.575 18.7922 181.612 18.6973 181.687 18.6227C181.761 18.5481 181.853 18.5108 181.965 18.5108C182.073 18.5108 182.165 18.5481 182.243 18.6227C182.317 18.6973 182.355 18.7888 182.355 18.9007C182.355 19.0092 182.317 19.1008 182.243 19.1788C182.168 19.2534 182.077 19.2907 181.965 19.2907C181.853 19.2907 181.761 19.2534 181.687 19.1788Z" fill="white"/>
<path d="M184.04 19.8536V18.9007H184.603V20.2842H185.508V20.8437H184.603V23.3089C184.603 23.7429 184.789 23.9565 185.162 23.9531C185.254 23.9531 185.349 23.943 185.44 23.9192C185.532 23.8955 185.6 23.8785 185.647 23.8582L185.722 23.8243V24.3872C185.549 24.4753 185.355 24.516 185.135 24.5126C184.779 24.5126 184.498 24.4075 184.298 24.2007C184.097 23.9904 183.996 23.692 183.996 23.3089V20.8437H183.216V20.2842H183.694C183.925 20.2842 184.04 20.1418 184.04 19.8536Z" fill="white"/>
<path d="M189.244 21.1286C188.987 20.8844 188.675 20.7623 188.312 20.7623C187.949 20.7623 187.634 20.8912 187.362 21.1455C187.095 21.3998 186.935 21.705 186.888 22.0577H189.699C189.651 21.6813 189.502 21.3727 189.244 21.1286ZM190.258 22.5832L186.888 22.5731C186.912 22.9461 187.064 23.2716 187.349 23.5429C187.634 23.8175 187.969 23.9531 188.356 23.9531C188.614 23.9531 188.854 23.8955 189.078 23.7802C189.302 23.6649 189.458 23.5496 189.55 23.4343L189.695 23.2648L190.085 23.6548C190.068 23.6785 190.045 23.709 190.011 23.7497C189.98 23.7904 189.909 23.8582 189.801 23.9565C189.692 24.0549 189.577 24.1396 189.451 24.2142C189.326 24.2888 189.163 24.3567 188.966 24.4211C188.766 24.4855 188.566 24.516 188.356 24.516C187.79 24.516 187.305 24.3058 186.895 23.8853C186.488 23.4649 186.284 22.9528 186.284 22.356C186.284 21.7593 186.484 21.2472 186.891 20.8268C187.295 20.4063 187.769 20.1961 188.315 20.1961C188.882 20.1961 189.353 20.3927 189.733 20.7827C190.112 21.176 190.302 21.6711 190.302 22.2713L190.258 22.5832Z" fill="white"/>
<path d="M191.689 23.8853C191.283 23.4649 191.079 22.9562 191.079 22.356C191.079 21.7559 191.283 21.2472 191.693 20.8268C192.103 20.4063 192.588 20.1961 193.151 20.1961C193.473 20.1961 193.775 20.2673 194.056 20.4029C194.338 20.5419 194.534 20.681 194.656 20.82L194.84 21.02L194.406 21.4507C194.395 21.4337 194.378 21.41 194.355 21.3795C194.331 21.349 194.283 21.2913 194.205 21.2099C194.127 21.1286 194.046 21.0573 193.955 20.9963C193.866 20.9353 193.748 20.881 193.605 20.8335C193.463 20.7861 193.31 20.7623 193.154 20.7623C192.758 20.7623 192.415 20.9149 192.123 21.2235C191.832 21.5321 191.686 21.9085 191.686 22.3594C191.686 22.8104 191.832 23.1868 192.123 23.4954C192.415 23.804 192.758 23.9565 193.154 23.9565C193.395 23.9565 193.626 23.8989 193.843 23.7836C194.06 23.6683 194.216 23.553 194.314 23.4377L194.453 23.2682L194.884 23.6581C194.867 23.6819 194.84 23.7124 194.806 23.7531C194.772 23.7938 194.697 23.865 194.585 23.9599C194.473 24.0583 194.355 24.143 194.229 24.2176C194.104 24.2922 193.944 24.3601 193.751 24.4245C193.554 24.4889 193.358 24.5194 193.154 24.5194C192.585 24.516 192.096 24.3058 191.689 23.8853Z" fill="white"/>
<path d="M196.216 19.8536V18.9007H196.779V20.2842H197.684V20.8437H196.779V23.3089C196.779 23.7429 196.965 23.9565 197.338 23.9531C197.43 23.9531 197.525 23.943 197.617 23.9192C197.708 23.8955 197.776 23.8785 197.823 23.8582L197.898 23.8243V24.3872C197.725 24.4753 197.532 24.516 197.311 24.5126C196.955 24.5126 196.674 24.4075 196.474 24.2007C196.274 23.9904 196.172 23.692 196.172 23.3089V20.8437H195.392V20.2842H195.87C196.101 20.2842 196.216 20.1418 196.216 19.8536Z" fill="white"/>
<path d="M201.96 24.4313V23.8718C201.95 23.8887 201.933 23.9124 201.909 23.943C201.886 23.9735 201.835 24.0243 201.753 24.0989C201.669 24.1735 201.581 24.2414 201.486 24.299C201.391 24.3567 201.262 24.4075 201.109 24.4516C200.953 24.4957 200.794 24.5194 200.628 24.5194C200.143 24.5194 199.743 24.3499 199.424 24.0142C199.105 23.6785 198.946 23.2411 198.946 22.7053V20.2876H199.549V22.7053C199.549 23.0681 199.661 23.3665 199.888 23.6039C200.116 23.8412 200.39 23.9565 200.716 23.9565C201.068 23.9565 201.363 23.8277 201.608 23.5666C201.848 23.3089 201.97 22.9766 201.97 22.5764V20.2842H202.577V24.4313H201.96Z" fill="white"/>
<path d="M206.155 20.1961V20.803H205.894C205.537 20.803 205.232 20.9251 204.978 21.1726C204.724 21.4202 204.598 21.7423 204.598 22.139V24.4313H203.995V20.2842H204.598V20.8471C204.608 20.8302 204.625 20.8064 204.649 20.7759C204.673 20.7454 204.724 20.6945 204.808 20.6199C204.893 20.5453 204.985 20.4809 205.08 20.4232C205.178 20.3656 205.307 20.3147 205.47 20.2673C205.632 20.2198 205.802 20.1961 205.982 20.1961H206.155Z" fill="white"/>
<path d="M209.627 21.1286C209.37 20.8844 209.061 20.7623 208.698 20.7623C208.335 20.7623 208.02 20.8912 207.749 21.1455C207.481 21.3998 207.321 21.705 207.274 22.0577H210.085C210.038 21.6813 209.888 21.3727 209.627 21.1286ZM210.645 22.5832L207.274 22.5731C207.298 22.9461 207.45 23.2716 207.735 23.5429C208.02 23.8175 208.356 23.9531 208.742 23.9531C209 23.9531 209.241 23.8955 209.464 23.7802C209.685 23.6649 209.844 23.5496 209.936 23.4343L210.082 23.2648L210.472 23.6548C210.455 23.6785 210.431 23.709 210.397 23.7497C210.366 23.7904 210.295 23.8582 210.187 23.9565C210.078 24.0549 209.963 24.1396 209.837 24.2142C209.712 24.2888 209.549 24.3567 209.353 24.4211C209.156 24.4855 208.949 24.516 208.742 24.516C208.176 24.516 207.691 24.3058 207.284 23.8853C206.877 23.4649 206.67 22.9528 206.67 22.356C206.67 21.7593 206.87 21.2472 207.277 20.8268C207.681 20.4063 208.156 20.1961 208.702 20.1961C209.268 20.1961 209.739 20.3927 210.119 20.7827C210.499 21.176 210.689 21.6711 210.689 22.2713L210.645 22.5832Z" fill="white"/>
<path d="M163.912 30.0059C163.912 30.1618 163.976 30.3416 164.105 30.5484C164.234 30.7552 164.363 30.9248 164.492 31.0604L164.688 31.2571C164.712 31.2401 164.743 31.2164 164.783 31.1859C164.824 31.1554 164.895 31.0909 164.99 30.996C165.089 30.9011 165.177 30.8061 165.251 30.7078C165.326 30.6128 165.394 30.5009 165.458 30.3687C165.523 30.2398 165.553 30.1178 165.553 30.0025C165.553 29.7821 165.475 29.599 165.319 29.4498C165.163 29.3006 164.966 29.226 164.732 29.226C164.499 29.226 164.302 29.3006 164.146 29.4498C163.99 29.599 163.912 29.7855 163.912 30.0059ZM166.031 33.807L164.604 31.9929C164.58 32.0099 164.546 32.0336 164.505 32.0709C164.461 32.1048 164.383 32.176 164.275 32.2845C164.163 32.3896 164.068 32.4982 163.986 32.6033C163.902 32.7084 163.827 32.8372 163.756 32.9864C163.685 33.1356 163.651 33.2781 163.651 33.4171C163.651 33.6917 163.756 33.9122 163.963 34.0783C164.17 34.2445 164.458 34.3258 164.817 34.3258C165.048 34.3258 165.265 34.2818 165.465 34.197C165.665 34.1122 165.811 34.024 165.896 33.9393L166.031 33.807ZM166.116 29.9618C166.116 30.1279 166.079 30.3009 166.001 30.4772C165.923 30.6569 165.831 30.8129 165.719 30.9451C165.611 31.0774 165.499 31.1995 165.39 31.3113C165.282 31.4199 165.19 31.5046 165.116 31.5589L164.994 31.6437L166.377 33.3323C166.404 33.2916 166.441 33.234 166.486 33.1492C166.53 33.0678 166.587 32.9017 166.659 32.6474C166.73 32.393 166.767 32.1319 166.767 31.8641H167.327C167.327 32.0845 167.306 32.2981 167.269 32.5117C167.232 32.7253 167.184 32.9051 167.13 33.0543C167.076 33.2035 167.018 33.3391 166.96 33.4578C166.903 33.5765 166.859 33.6646 166.825 33.7189L166.767 33.8036C166.791 33.8443 166.821 33.8918 166.865 33.9495C166.909 34.0105 166.991 34.0851 167.113 34.18C167.235 34.275 167.35 34.3224 167.459 34.3224L167.716 34.2818V34.8413C167.611 34.8684 167.513 34.8819 167.411 34.8819C167.296 34.8819 167.184 34.8582 167.076 34.8141C166.967 34.77 166.876 34.7124 166.798 34.6412C166.723 34.5734 166.652 34.5022 166.594 34.4343C166.533 34.3631 166.489 34.3055 166.462 34.2614L166.421 34.1936C166.404 34.2105 166.38 34.2343 166.35 34.2648C166.319 34.2953 166.255 34.353 166.157 34.4343C166.058 34.5157 165.95 34.5869 165.835 34.648C165.719 34.709 165.57 34.7633 165.39 34.8107C165.207 34.8582 165.021 34.8819 164.821 34.8819C164.315 34.8819 163.902 34.7395 163.576 34.4513C163.254 34.1631 163.091 33.8172 163.091 33.4137C163.091 33.2102 163.132 33.0136 163.213 32.8169C163.295 32.6202 163.393 32.4575 163.505 32.3218C163.617 32.1862 163.732 32.0675 163.844 31.959C163.959 31.8505 164.054 31.7725 164.139 31.7216L164.261 31.6403C164.237 31.6165 164.207 31.586 164.166 31.5419C164.126 31.4978 164.051 31.4131 163.942 31.2774C163.837 31.1452 163.742 31.0163 163.668 30.8909C163.59 30.7654 163.519 30.623 163.451 30.4568C163.383 30.2907 163.352 30.1381 163.352 29.9957C163.352 29.6261 163.485 29.3107 163.753 29.0496C164.02 28.7885 164.346 28.6563 164.732 28.6563C165.119 28.6563 165.448 28.7851 165.712 29.0395C165.98 29.3073 166.116 29.6125 166.116 29.9618Z" fill="white"/>
<path d="M171.277 31.6097C170.975 31.9285 170.822 32.3015 170.822 32.7287C170.822 33.156 170.971 33.529 171.277 33.8477C171.578 34.1665 171.918 34.3258 172.291 34.3258C172.647 34.3258 172.969 34.1699 173.25 33.8613C173.532 33.5493 173.674 33.1729 173.674 32.7287C173.674 32.2845 173.532 31.9081 173.25 31.5996C172.969 31.2876 172.647 31.135 172.291 31.135C171.918 31.1316 171.578 31.291 171.277 31.6097ZM170.822 28.7512V31.3046C170.832 31.2876 170.853 31.2605 170.883 31.2266C170.914 31.1927 170.971 31.1316 171.063 31.0469C171.155 30.9621 171.253 30.8875 171.361 30.8197C171.467 30.7552 171.606 30.6942 171.772 30.6433C171.938 30.5925 172.111 30.5654 172.287 30.5654C172.816 30.5654 173.281 30.779 173.677 31.2028C174.074 31.6267 174.274 32.1353 174.274 32.7287C174.274 33.3221 174.078 33.8308 173.681 34.2512C173.284 34.6751 172.819 34.8853 172.287 34.8853C172.111 34.8853 171.938 34.8616 171.775 34.8107C171.609 34.7599 171.473 34.6988 171.358 34.6276C171.246 34.5564 171.148 34.4852 171.063 34.414C170.982 34.3428 170.921 34.2818 170.88 34.2309L170.815 34.1495V34.8006H170.212V28.7512H170.822Z" fill="white"/>
<path d="M177.519 30.5654V31.1723H177.258C176.902 31.1723 176.597 31.2944 176.342 31.5419C176.088 31.7895 175.962 32.1116 175.962 32.5083V34.8006H175.359V30.6535H175.962V31.2164C175.973 31.1995 175.99 31.1757 176.013 31.1452C176.037 31.1147 176.088 31.0638 176.173 30.9892C176.257 30.9146 176.349 30.8468 176.444 30.7892C176.539 30.7315 176.671 30.6806 176.834 30.6332C176.997 30.5857 177.166 30.562 177.346 30.562H177.519V30.5654Z" fill="white"/>
<path d="M179.503 34.3258C179.893 34.3258 180.215 34.197 180.466 33.9427C180.717 33.6884 180.842 33.3561 180.842 32.9458V32.6847L179.415 32.9458C178.896 33.0441 178.638 33.2882 178.635 33.6816C178.635 33.8681 178.713 34.0207 178.865 34.1427C179.021 34.2648 179.235 34.3258 179.503 34.3258ZM179.245 32.427L180.846 32.1659C180.846 31.8607 180.747 31.6098 180.554 31.4199C180.361 31.23 180.11 31.1316 179.808 31.1316C179.588 31.1316 179.384 31.1825 179.191 31.2808C178.998 31.3826 178.859 31.4843 178.771 31.586L178.642 31.7352L178.252 31.3453C178.269 31.3215 178.292 31.2944 178.32 31.2605C178.35 31.2266 178.414 31.1622 178.513 31.074C178.611 30.9858 178.716 30.9045 178.828 30.8366C178.937 30.7654 179.082 30.7044 179.259 30.6501C179.439 30.5959 179.618 30.5688 179.805 30.5688C180.276 30.5688 180.669 30.7213 180.978 31.0299C181.29 31.3351 181.446 31.7149 181.446 32.1692V34.8074H180.842V34.2445C180.832 34.2614 180.815 34.2852 180.791 34.3157C180.768 34.3462 180.713 34.3971 180.632 34.4717C180.547 34.5463 180.459 34.6141 180.364 34.6683C180.269 34.726 180.14 34.7768 179.988 34.8209C179.832 34.865 179.672 34.8887 179.506 34.8887C179.093 34.8887 178.743 34.7667 178.462 34.5225C178.181 34.2784 178.038 33.9969 178.038 33.6816C178.038 33.3357 178.143 33.0577 178.35 32.844C178.557 32.6304 178.855 32.4914 179.245 32.427Z" fill="white"/>
<path d="M183.433 30.6535V31.2571C183.443 31.2401 183.46 31.2164 183.484 31.1859C183.507 31.1554 183.558 31.0977 183.643 31.0163C183.728 30.935 183.816 30.8638 183.911 30.8027C184.006 30.7417 184.131 30.6874 184.287 30.6366C184.443 30.5891 184.603 30.562 184.769 30.562C185.271 30.562 185.677 30.7247 185.989 31.0469C186.301 31.369 186.457 31.7996 186.457 32.332V34.7972H185.85V32.332C185.85 31.9692 185.745 31.6776 185.535 31.4572C185.325 31.2367 185.057 31.1249 184.728 31.1249C184.358 31.1249 184.053 31.2537 183.806 31.5148C183.558 31.7725 183.436 32.1048 183.436 32.5049V34.7972H182.833V30.6535H183.433Z" fill="white"/>
<path d="M190.537 33.8477C190.839 33.529 190.991 33.156 190.991 32.7287C190.991 32.3015 190.842 31.9285 190.537 31.6097C190.235 31.291 189.896 31.1316 189.523 31.1316C189.167 31.1316 188.845 31.2876 188.564 31.5996C188.282 31.9115 188.14 32.2879 188.14 32.7287C188.14 33.1729 188.282 33.5493 188.564 33.8579C188.848 34.1699 189.167 34.3258 189.523 34.3258C189.896 34.3258 190.232 34.1665 190.537 33.8477ZM190.988 31.3046V28.7512H191.592V34.8039H190.988V34.1563C190.978 34.1732 190.958 34.2004 190.927 34.2343C190.9 34.2682 190.839 34.3292 190.747 34.414C190.656 34.4988 190.554 34.5734 190.449 34.6412C190.344 34.709 190.205 34.7666 190.039 34.8175C189.872 34.8684 189.7 34.8921 189.523 34.8921C188.994 34.8921 188.53 34.6819 188.133 34.258C187.736 33.8342 187.536 33.3255 187.536 32.7355C187.536 32.1455 187.736 31.6335 188.133 31.2096C188.533 30.7858 188.994 30.5721 189.523 30.5721C189.7 30.5721 189.872 30.5993 190.035 30.6501C190.201 30.701 190.337 30.762 190.452 30.8332C190.564 30.9011 190.663 30.9723 190.747 31.0469C190.829 31.1215 190.893 31.1825 190.934 31.2334L190.988 31.3046Z" fill="white"/>
<path d="M193.019 30.6535H193.622V34.8005H193.019V30.6535ZM193.043 29.5481C192.968 29.4735 192.931 29.3819 192.931 29.27C192.931 29.1615 192.968 29.0666 193.043 28.992C193.117 28.9174 193.209 28.8801 193.321 28.8801C193.429 28.8801 193.521 28.9174 193.595 28.992C193.67 29.0666 193.707 29.1581 193.707 29.27C193.707 29.3785 193.67 29.4701 193.595 29.5481C193.521 29.6227 193.429 29.66 193.321 29.66C193.209 29.66 193.117 29.6227 193.043 29.5481Z" fill="white"/>
<path d="M195.609 30.6535V31.2571C195.62 31.2401 195.637 31.2164 195.66 31.1859C195.684 31.1554 195.735 31.0977 195.82 31.0163C195.904 30.935 195.993 30.8638 196.088 30.8027C196.183 30.7417 196.308 30.6874 196.464 30.6366C196.62 30.5891 196.779 30.562 196.945 30.562C197.447 30.562 197.854 30.7247 198.166 31.0469C198.478 31.369 198.634 31.7996 198.634 32.332V34.7972H198.027V32.332C198.027 31.9692 197.922 31.6776 197.715 31.4572C197.505 31.2367 197.237 31.1249 196.908 31.1249C196.539 31.1249 196.233 31.2537 195.986 31.5148C195.738 31.7725 195.616 32.1048 195.616 32.5049V34.7972H195.013V30.6535H195.609Z" fill="white"/>
<path d="M200.722 31.5691C200.451 31.8607 200.315 32.2201 200.315 32.6406C200.315 33.061 200.451 33.4205 200.722 33.7121C200.994 34.0037 201.306 34.1495 201.658 34.1495C202.031 34.1495 202.357 34.0037 202.628 33.7155C202.899 33.4239 203.038 33.0678 203.038 32.6406C203.038 32.2133 202.903 31.8539 202.628 31.5657C202.353 31.2774 202.031 31.1316 201.658 31.1316C201.306 31.1316 200.994 31.2774 200.722 31.5691ZM203.035 34.5462V34.0274C203.025 34.0444 203.008 34.0681 202.984 34.0986C202.96 34.1292 202.91 34.1868 202.828 34.2682C202.743 34.3496 202.655 34.4208 202.557 34.4818C202.459 34.5429 202.33 34.5971 202.167 34.648C202.004 34.6954 201.835 34.7226 201.658 34.7226C201.136 34.7226 200.682 34.5225 200.292 34.1156C199.905 33.7121 199.712 33.2204 199.712 32.644C199.712 32.0675 199.905 31.5758 200.288 31.1723C200.675 30.7688 201.129 30.5654 201.655 30.5654C201.831 30.5654 202.001 30.5891 202.16 30.6366C202.32 30.684 202.452 30.7417 202.553 30.8095C202.659 30.8773 202.747 30.9485 202.821 31.0163C202.896 31.0875 202.95 31.1452 202.984 31.1893L203.035 31.2571V30.6535H203.642V34.5429C203.642 35.1261 203.445 35.6144 203.049 36.0145C202.652 36.4146 202.174 36.6147 201.607 36.6147C201.387 36.6147 201.18 36.5842 200.98 36.5231C200.783 36.4621 200.621 36.3909 200.492 36.3095C200.366 36.2247 200.254 36.1433 200.156 36.0586C200.058 35.9738 199.99 35.9026 199.946 35.8382L199.878 35.75L200.268 35.3634C200.278 35.3804 200.299 35.4041 200.326 35.438C200.353 35.472 200.407 35.5262 200.495 35.6076C200.58 35.689 200.672 35.7568 200.766 35.8178C200.861 35.8789 200.987 35.9331 201.136 35.984C201.289 36.0314 201.445 36.0586 201.604 36.0586C201.994 36.0586 202.33 35.9128 202.611 35.6245C202.896 35.3329 203.035 34.9735 203.035 34.5462Z" fill="white"/>
</svg>
