<svg id="Слой_1" data-name="Слой 1" xmlns="http://www.w3.org/2000/svg" xmlns:xlink="http://www.w3.org/1999/xlink" viewBox="0 0 14575 2251"><defs><style>.cls-1{fill:#102349;}.cls-2{fill:url(#Безымянный_градиент_8);}.cls-3{fill:url(#Безымянный_градиент_2);}.cls-4{fill:url(#Безымянный_градиент_3);}.cls-5{fill:url(#Безымянный_градиент_4);}.cls-6{fill:#3f73d8;}.cls-7{fill:url(#Безымянный_градиент_8-2);}.cls-8{fill:url(#Безымянный_градиент_2-2);}.cls-9{fill:url(#Безымянный_градиент_3-2);}.cls-10{fill:url(#Безымянный_градиент_4-2);}.cls-11{fill:url(#Безымянный_градиент_8-3);}.cls-12{fill:url(#Безымянный_градиент_2-3);}.cls-13{fill:url(#Безымянный_градиент_3-3);}.cls-14{fill:url(#Безымянный_градиент_4-3);}.cls-15{fill:url(#Безымянный_градиент_8-4);}.cls-16{fill:url(#Безымянный_градиент_2-4);}.cls-17{fill:url(#Безымянный_градиент_3-4);}.cls-18{fill:url(#Безымянный_градиент_4-4);}.cls-19{fill:url(#Безымянный_градиент_8-5);}.cls-20{fill:url(#Безымянный_градиент_2-5);}.cls-21{fill:url(#Безымянный_градиент_3-5);}.cls-22{fill:url(#Безымянный_градиент_4-5);}.cls-23{fill:url(#Безымянный_градиент_8-6);}.cls-24{fill:url(#Безымянный_градиент_2-6);}.cls-25{fill:url(#Безымянный_градиент_3-6);}.cls-26{fill:url(#Безымянный_градиент_4-6);}.cls-27{fill:url(#Безымянный_градиент_8-7);}.cls-28{fill:url(#Безымянный_градиент_2-7);}.cls-29{fill:url(#Безымянный_градиент_3-7);}.cls-30{fill:url(#Безымянный_градиент_4-7);}.cls-31{fill:url(#Безымянный_градиент_8-8);}.cls-32{fill:url(#Безымянный_градиент_2-8);}.cls-33{fill:url(#Безымянный_градиент_3-8);}.cls-34{fill:url(#Безымянный_градиент_4-8);}.cls-35{fill:url(#Безымянный_градиент_8-9);}.cls-36{fill:url(#Безымянный_градиент_2-9);}.cls-37{fill:url(#Безымянный_градиент_3-9);}.cls-38{fill:url(#Безымянный_градиент_4-9);}.cls-39{fill:url(#Безымянный_градиент_8-10);}.cls-40{fill:url(#Безымянный_градиент_2-10);}.cls-41{fill:url(#Безымянный_градиент_3-10);}.cls-42{fill:url(#Безымянный_градиент_4-10);}.cls-43{fill:url(#Безымянный_градиент_8-11);}.cls-44{fill:url(#Безымянный_градиент_2-11);}.cls-45{fill:url(#Безымянный_градиент_3-11);}.cls-46{fill:url(#Безымянный_градиент_4-11);}.cls-47{fill:url(#Безымянный_градиент_8-12);}.cls-48{fill:url(#Безымянный_градиент_2-12);}.cls-49{fill:url(#Безымянный_градиент_3-12);}.cls-50{fill:url(#Безымянный_градиент_4-12);}.cls-51{fill:url(#Безымянный_градиент_8-13);}.cls-52{fill:url(#Безымянный_градиент_2-13);}.cls-53{fill:url(#Безымянный_градиент_3-13);}.cls-54{fill:url(#Безымянный_градиент_4-13);}.cls-55{fill:url(#Безымянный_градиент_8-14);}.cls-56{fill:url(#Безымянный_градиент_2-14);}.cls-57{fill:url(#Безымянный_градиент_3-14);}.cls-58{fill:url(#Безымянный_градиент_4-14);}.cls-59{fill:url(#Безымянный_градиент_8-15);}.cls-60{fill:url(#Безымянный_градиент_2-15);}.cls-61{fill:url(#Безымянный_градиент_3-15);}.cls-62{fill:url(#Безымянный_градиент_4-15);}.cls-63{fill:url(#Безымянный_градиент_8-16);}.cls-64{fill:url(#Безымянный_градиент_2-16);}.cls-65{fill:url(#Безымянный_градиент_3-16);}.cls-66{fill:url(#Безымянный_градиент_4-16);}.cls-67{fill:url(#Безымянный_градиент_8-17);}.cls-68{fill:url(#Безымянный_градиент_2-17);}.cls-69{fill:url(#Безымянный_градиент_3-17);}.cls-70{fill:url(#Безымянный_градиент_4-17);}.cls-71{fill:url(#Безымянный_градиент_6);}.cls-72{fill:url(#Безымянный_градиент_7);}.cls-73{fill:url(#Безымянный_градиент_5);}.cls-74{fill:url(#Безымянный_градиент_6-2);}.cls-75{fill:url(#Безымянный_градиент_7-2);}.cls-76{fill:url(#Безымянный_градиент_5-2);}.cls-77{fill:url(#Безымянный_градиент_6-3);}.cls-78{fill:url(#Безымянный_градиент_7-3);}.cls-79{fill:url(#Безымянный_градиент_5-3);}.cls-80{fill:url(#Безымянный_градиент_6-4);}.cls-81{fill:url(#Безымянный_градиент_7-4);}.cls-82{fill:url(#Безымянный_градиент_5-4);}.cls-83{fill:url(#Безымянный_градиент_6-5);}.cls-84{fill:url(#Безымянный_градиент_7-5);}.cls-85{fill:url(#Безымянный_градиент_5-5);}.cls-86{fill:url(#Безымянный_градиент_6-6);}.cls-87{fill:url(#Безымянный_градиент_7-6);}.cls-88{fill:url(#Безымянный_градиент_5-6);}.cls-89{fill:url(#Безымянный_градиент_6-7);}.cls-90{fill:url(#Безымянный_градиент_7-7);}.cls-91{fill:url(#Безымянный_градиент_5-7);}.cls-92{fill:url(#Безымянный_градиент_6-8);}.cls-93{fill:url(#Безымянный_градиент_7-8);}.cls-94{fill:url(#Безымянный_градиент_5-8);}.cls-95{fill:url(#Безымянный_градиент_6-9);}.cls-96{fill:url(#Безымянный_градиент_7-9);}.cls-97{fill:url(#Безымянный_градиент_5-9);}.cls-98{fill:url(#Безымянный_градиент_6-10);}.cls-99{fill:url(#Безымянный_градиент_7-10);}.cls-100{fill:url(#Безымянный_градиент_5-10);}.cls-101{fill:url(#Безымянный_градиент_6-11);}.cls-102{fill:url(#Безымянный_градиент_7-11);}.cls-103{fill:url(#Безымянный_градиент_5-11);}.cls-104{fill:url(#Безымянный_градиент_6-12);}.cls-105{fill:url(#Безымянный_градиент_7-12);}.cls-106{fill:url(#Безымянный_градиент_5-12);}.cls-107{fill:url(#Безымянный_градиент_6-13);}.cls-108{fill:url(#Безымянный_градиент_7-13);}.cls-109{fill:url(#Безымянный_градиент_5-13);}.cls-110{fill:url(#Безымянный_градиент_6-14);}.cls-111{fill:url(#Безымянный_градиент_7-14);}.cls-112{fill:url(#Безымянный_градиент_5-14);}.cls-113{fill:url(#Безымянный_градиент_6-15);}.cls-114{fill:url(#Безымянный_градиент_7-15);}.cls-115{fill:url(#Безымянный_градиент_5-15);}.cls-116{fill:url(#Безымянный_градиент_6-16);}.cls-117{fill:url(#Безымянный_градиент_7-16);}.cls-118{fill:url(#Безымянный_градиент_5-16);}.cls-119{fill:url(#Безымянный_градиент_6-17);}.cls-120{fill:url(#Безымянный_градиент_7-17);}.cls-121{fill:url(#Безымянный_градиент_5-17);}</style><linearGradient id="Безымянный_градиент_8" x1="1260.88" y1="1624.59" x2="1722.86" y2="1021.59" gradientTransform="matrix(1, 0, 0, -1, 0, 2114)" gradientUnits="userSpaceOnUse"><stop offset="0" stop-color="#183f8b"/><stop offset="0.56" stop-color="#05122a"/><stop offset="1"/></linearGradient><linearGradient id="Безымянный_градиент_2" x1="702.73" y1="1343.38" x2="1828.18" y2="1219.22" gradientTransform="matrix(1, 0, 0, -1, 0, 2114)" gradientUnits="userSpaceOnUse"><stop offset="0.01" stop-color="#2756b0"/><stop offset="0.5" stop-color="#102349"/><stop offset="0.96"/></linearGradient><linearGradient id="Безымянный_градиент_3" x1="1647.37" y1="1181.46" x2="707.69" y2="825.63" gradientTransform="matrix(1, 0, 0, -1, 0, 2114)" gradientUnits="userSpaceOnUse"><stop offset="0" stop-color="#183f8b"/><stop offset="0.41" stop-color="#05122a"/><stop offset="1"/></linearGradient><linearGradient id="Безымянный_градиент_4" x1="1440.58" y1="1266.67" x2="581.39" y2="887.47" gradientTransform="matrix(1, 0, 0, -1, 0, 2114)" gradientUnits="userSpaceOnUse"><stop offset="0" stop-color="#2756b0"/><stop offset="0.51" stop-color="#102349"/><stop offset="1"/></linearGradient><linearGradient id="Безымянный_градиент_8-2" x1="2109.88" y1="1567.94" x2="2571.86" y2="964.93" xlink:href="#Безымянный_градиент_8"/><linearGradient id="Безымянный_градиент_2-2" x1="1551.73" y1="1286.73" x2="2677.18" y2="1162.57" xlink:href="#Безымянный_градиент_2"/><linearGradient id="Безымянный_градиент_3-2" x1="2496.37" y1="1124.8" x2="1556.69" y2="768.97" xlink:href="#Безымянный_градиент_3"/><linearGradient id="Безымянный_градиент_4-2" x1="2289.58" y1="1210.02" x2="1430.39" y2="830.82" xlink:href="#Безымянный_градиент_4"/><linearGradient id="Безымянный_градиент_8-3" x1="2958.88" y1="1511.29" x2="3420.86" y2="908.28" xlink:href="#Безымянный_градиент_8"/><linearGradient id="Безымянный_градиент_2-3" x1="2400.73" y1="1230.07" x2="3526.18" y2="1105.91" xlink:href="#Безымянный_градиент_2"/><linearGradient id="Безымянный_градиент_3-3" x1="3345.37" y1="1068.15" x2="2405.69" y2="712.32" xlink:href="#Безымянный_градиент_3"/><linearGradient id="Безымянный_градиент_4-3" x1="3138.58" y1="1153.36" x2="2279.39" y2="774.17" xlink:href="#Безымянный_градиент_4"/><linearGradient id="Безымянный_градиент_8-4" x1="3807.88" y1="1454.64" x2="4269.86" y2="851.63" xlink:href="#Безымянный_градиент_8"/><linearGradient id="Безымянный_градиент_2-4" x1="3249.73" y1="1173.42" x2="4375.18" y2="1049.26" xlink:href="#Безымянный_градиент_2"/><linearGradient id="Безымянный_градиент_3-4" x1="4194.37" y1="1011.5" x2="3254.69" y2="655.67" xlink:href="#Безымянный_градиент_3"/><linearGradient id="Безымянный_градиент_4-4" x1="3987.58" y1="1096.71" x2="3128.39" y2="717.52" xlink:href="#Безымянный_градиент_4"/><linearGradient id="Безымянный_градиент_8-5" x1="4656.88" y1="1397.99" x2="5118.86" y2="794.98" xlink:href="#Безымянный_градиент_8"/><linearGradient id="Безымянный_градиент_2-5" x1="4098.73" y1="1116.77" x2="5224.18" y2="992.61" xlink:href="#Безымянный_градиент_2"/><linearGradient id="Безымянный_градиент_3-5" x1="5043.37" y1="954.85" x2="4103.69" y2="599.02" xlink:href="#Безымянный_градиент_3"/><linearGradient id="Безымянный_градиент_4-5" x1="4836.58" y1="1040.06" x2="3977.39" y2="660.87" xlink:href="#Безымянный_градиент_4"/><linearGradient id="Безымянный_градиент_8-6" x1="5505.88" y1="1341.33" x2="5967.86" y2="738.33" xlink:href="#Безымянный_градиент_8"/><linearGradient id="Безымянный_градиент_2-6" x1="4947.73" y1="1060.12" x2="6073.18" y2="935.96" xlink:href="#Безымянный_градиент_2"/><linearGradient id="Безымянный_градиент_3-6" x1="5892.37" y1="898.2" x2="4952.69" y2="542.37" xlink:href="#Безымянный_градиент_3"/><linearGradient id="Безымянный_градиент_4-6" x1="5685.58" y1="983.41" x2="4826.39" y2="604.21" xlink:href="#Безымянный_градиент_4"/><linearGradient id="Безымянный_градиент_8-7" x1="6354.88" y1="1284.68" x2="6816.86" y2="681.67" xlink:href="#Безымянный_градиент_8"/><linearGradient id="Безымянный_градиент_2-7" x1="5796.73" y1="1003.47" x2="6922.18" y2="879.31" xlink:href="#Безымянный_градиент_2"/><linearGradient id="Безымянный_градиент_3-7" x1="6741.37" y1="841.54" x2="5801.69" y2="485.71" xlink:href="#Безымянный_градиент_3"/><linearGradient id="Безымянный_градиент_4-7" x1="6534.58" y1="926.76" x2="5675.39" y2="547.56" xlink:href="#Безымянный_градиент_4"/><linearGradient id="Безымянный_градиент_8-8" x1="7203.88" y1="1228.03" x2="7665.86" y2="625.02" xlink:href="#Безымянный_градиент_8"/><linearGradient id="Безымянный_градиент_2-8" x1="6645.73" y1="946.82" x2="7771.18" y2="822.65" xlink:href="#Безымянный_градиент_2"/><linearGradient id="Безымянный_градиент_3-8" x1="7590.37" y1="784.89" x2="6650.69" y2="429.06" xlink:href="#Безымянный_градиент_3"/><linearGradient id="Безымянный_градиент_4-8" x1="7383.58" y1="870.11" x2="6524.39" y2="490.91" xlink:href="#Безымянный_градиент_4"/><linearGradient id="Безымянный_градиент_8-9" x1="8052.88" y1="1171.38" x2="8514.86" y2="568.37" xlink:href="#Безымянный_градиент_8"/><linearGradient id="Безымянный_градиент_2-9" x1="7494.73" y1="890.16" x2="8620.18" y2="766" xlink:href="#Безымянный_градиент_2"/><linearGradient id="Безымянный_градиент_3-9" x1="8439.37" y1="728.24" x2="7499.69" y2="372.41" xlink:href="#Безымянный_градиент_3"/><linearGradient id="Безымянный_градиент_4-9" x1="8232.58" y1="813.45" x2="7373.39" y2="434.26" xlink:href="#Безымянный_градиент_4"/><linearGradient id="Безымянный_градиент_8-10" x1="8901.88" y1="1114.73" x2="9363.86" y2="511.72" xlink:href="#Безымянный_градиент_8"/><linearGradient id="Безымянный_градиент_2-10" x1="8343.73" y1="833.51" x2="9469.18" y2="709.35" xlink:href="#Безымянный_градиент_2"/><linearGradient id="Безымянный_градиент_3-10" x1="9288.37" y1="671.59" x2="8348.69" y2="315.76" xlink:href="#Безымянный_градиент_3"/><linearGradient id="Безымянный_градиент_4-10" x1="9081.58" y1="756.8" x2="8222.39" y2="377.61" xlink:href="#Безымянный_градиент_4"/><linearGradient id="Безымянный_градиент_8-11" x1="9750.88" y1="1058.08" x2="10212.86" y2="455.07" xlink:href="#Безымянный_градиент_8"/><linearGradient id="Безымянный_градиент_2-11" x1="9192.73" y1="776.86" x2="10318.18" y2="652.7" xlink:href="#Безымянный_градиент_2"/><linearGradient id="Безымянный_градиент_3-11" x1="10137.37" y1="614.94" x2="9197.69" y2="259.11" xlink:href="#Безымянный_градиент_3"/><linearGradient id="Безымянный_градиент_4-11" x1="9930.58" y1="700.15" x2="9071.39" y2="320.96" xlink:href="#Безымянный_градиент_4"/><linearGradient id="Безымянный_градиент_8-12" x1="10599.88" y1="1001.42" x2="11061.86" y2="398.42" xlink:href="#Безымянный_градиент_8"/><linearGradient id="Безымянный_градиент_2-12" x1="10041.73" y1="720.21" x2="11167.18" y2="596.05" xlink:href="#Безымянный_градиент_2"/><linearGradient id="Безымянный_градиент_3-12" x1="10986.37" y1="558.28" x2="10046.69" y2="202.45" xlink:href="#Безымянный_градиент_3"/><linearGradient id="Безымянный_градиент_4-12" x1="10779.58" y1="643.5" x2="9920.39" y2="264.3" xlink:href="#Безымянный_градиент_4"/><linearGradient id="Безымянный_градиент_8-13" x1="11448.88" y1="944.77" x2="11910.86" y2="341.76" xlink:href="#Безымянный_градиент_8"/><linearGradient id="Безымянный_градиент_2-13" x1="10890.73" y1="663.56" x2="12016.18" y2="539.4" xlink:href="#Безымянный_градиент_2"/><linearGradient id="Безымянный_градиент_3-13" x1="11835.37" y1="501.63" x2="10895.69" y2="145.8" xlink:href="#Безымянный_градиент_3"/><linearGradient id="Безымянный_градиент_4-13" x1="11628.58" y1="586.85" x2="10769.39" y2="207.65" xlink:href="#Безымянный_градиент_4"/><linearGradient id="Безымянный_градиент_8-14" x1="12297.88" y1="888.12" x2="12759.86" y2="285.11" xlink:href="#Безымянный_градиент_8"/><linearGradient id="Безымянный_градиент_2-14" x1="11739.73" y1="606.9" x2="12865.18" y2="482.74" xlink:href="#Безымянный_градиент_2"/><linearGradient id="Безымянный_градиент_3-14" x1="12684.37" y1="444.98" x2="11744.69" y2="89.15" xlink:href="#Безымянный_градиент_3"/><linearGradient id="Безымянный_градиент_4-14" x1="12477.58" y1="530.19" x2="11618.39" y2="151" xlink:href="#Безымянный_градиент_4"/><linearGradient id="Безымянный_градиент_8-15" x1="13146.88" y1="831.47" x2="13608.86" y2="228.46" xlink:href="#Безымянный_градиент_8"/><linearGradient id="Безымянный_градиент_2-15" x1="12588.73" y1="550.25" x2="13714.18" y2="426.09" xlink:href="#Безымянный_градиент_2"/><linearGradient id="Безымянный_градиент_3-15" x1="13533.37" y1="388.33" x2="12593.69" y2="32.5" xlink:href="#Безымянный_градиент_3"/><linearGradient id="Безымянный_градиент_4-15" x1="13326.58" y1="473.54" x2="12467.39" y2="94.35" xlink:href="#Безымянный_градиент_4"/><linearGradient id="Безымянный_градиент_8-16" x1="13995.88" y1="774.82" x2="14457.86" y2="171.81" xlink:href="#Безымянный_градиент_8"/><linearGradient id="Безымянный_градиент_2-16" x1="13437.73" y1="493.6" x2="14563.18" y2="369.44" xlink:href="#Безымянный_градиент_2"/><linearGradient id="Безымянный_градиент_3-16" x1="14382.37" y1="331.68" x2="13442.69" y2="-24.15" xlink:href="#Безымянный_градиент_3"/><linearGradient id="Безымянный_градиент_4-16" x1="14175.58" y1="416.89" x2="13316.39" y2="37.7" xlink:href="#Безымянный_градиент_4"/><linearGradient id="Безымянный_градиент_8-17" x1="412.87" y1="1681.25" x2="874.85" y2="1078.24" xlink:href="#Безымянный_градиент_8"/><linearGradient id="Безымянный_градиент_2-17" x1="-145.28" y1="1400.03" x2="980.17" y2="1275.87" xlink:href="#Безымянный_градиент_2"/><linearGradient id="Безымянный_градиент_3-17" x1="799.36" y1="1238.11" x2="-140.33" y2="882.28" xlink:href="#Безымянный_градиент_3"/><linearGradient id="Безымянный_градиент_4-17" x1="592.57" y1="1323.32" x2="-266.62" y2="944.13" xlink:href="#Безымянный_градиент_4"/><linearGradient id="Безымянный_градиент_6" x1="841.07" y1="1657.29" x2="-515.71" y2="1461.91" gradientTransform="matrix(1, 0, 0, -1, 0, 2114)" gradientUnits="userSpaceOnUse"><stop offset="0" stop-color="#3f73d8"/><stop offset="1"/></linearGradient><linearGradient id="Безымянный_градиент_7" x1="763.27" y1="1616.08" x2="300.72" y2="1026.99" gradientTransform="matrix(1, 0, 0, -1, 0, 2114)" gradientUnits="userSpaceOnUse"><stop offset="0" stop-color="#1a4599"/><stop offset="1"/></linearGradient><linearGradient id="Безымянный_градиент_5" x1="425.51" y1="1597.98" x2="-335.34" y2="1092.22" gradientTransform="matrix(1, 0, 0, -1, 0, 2114)" gradientUnits="userSpaceOnUse"><stop offset="0.25" stop-color="#0f347c"/><stop offset="1"/></linearGradient><linearGradient id="Безымянный_градиент_6-2" x1="1690.07" y1="1680.26" x2="333.29" y2="1484.89" xlink:href="#Безымянный_градиент_6"/><linearGradient id="Безымянный_градиент_7-2" x1="1612.27" y1="1639.06" x2="1149.72" y2="1049.97" xlink:href="#Безымянный_градиент_7"/><linearGradient id="Безымянный_градиент_5-2" x1="1274.51" y1="1620.96" x2="513.66" y2="1115.19" xlink:href="#Безымянный_градиент_5"/><linearGradient id="Безымянный_градиент_6-3" x1="2539.07" y1="1703.24" x2="1182.29" y2="1507.87" xlink:href="#Безымянный_градиент_6"/><linearGradient id="Безымянный_градиент_7-3" x1="2461.27" y1="1662.04" x2="1998.72" y2="1072.95" xlink:href="#Безымянный_градиент_7"/><linearGradient id="Безымянный_градиент_5-3" x1="2123.51" y1="1643.93" x2="1362.66" y2="1138.17" xlink:href="#Безымянный_градиент_5"/><linearGradient id="Безымянный_градиент_6-4" x1="3388.07" y1="1726.22" x2="2031.29" y2="1530.85" xlink:href="#Безымянный_градиент_6"/><linearGradient id="Безымянный_градиент_7-4" x1="3310.27" y1="1685.02" x2="2847.72" y2="1095.92" xlink:href="#Безымянный_градиент_7"/><linearGradient id="Безымянный_градиент_5-4" x1="2972.51" y1="1666.91" x2="2211.66" y2="1161.15" xlink:href="#Безымянный_градиент_5"/><linearGradient id="Безымянный_градиент_6-5" x1="4237.07" y1="1749.2" x2="2880.29" y2="1553.82" xlink:href="#Безымянный_градиент_6"/><linearGradient id="Безымянный_градиент_7-5" x1="4159.27" y1="1707.99" x2="3696.72" y2="1118.9" xlink:href="#Безымянный_градиент_7"/><linearGradient id="Безымянный_градиент_5-5" x1="3821.51" y1="1689.89" x2="3060.66" y2="1184.12" xlink:href="#Безымянный_градиент_5"/><linearGradient id="Безымянный_градиент_6-6" x1="5086.07" y1="1772.17" x2="3729.29" y2="1576.8" xlink:href="#Безымянный_градиент_6"/><linearGradient id="Безымянный_градиент_7-6" x1="5008.27" y1="1730.97" x2="4545.72" y2="1141.88" xlink:href="#Безымянный_градиент_7"/><linearGradient id="Безымянный_градиент_5-6" x1="4670.51" y1="1712.86" x2="3909.66" y2="1207.1" xlink:href="#Безымянный_градиент_5"/><linearGradient id="Безымянный_градиент_6-7" x1="5935.07" y1="1795.15" x2="4578.29" y2="1599.78" xlink:href="#Безымянный_градиент_6"/><linearGradient id="Безымянный_градиент_7-7" x1="5857.27" y1="1753.95" x2="5394.72" y2="1164.86" xlink:href="#Безымянный_градиент_7"/><linearGradient id="Безымянный_градиент_5-7" x1="5519.51" y1="1735.84" x2="4758.66" y2="1230.08" xlink:href="#Безымянный_градиент_5"/><linearGradient id="Безымянный_градиент_6-8" x1="6784.07" y1="1818.13" x2="5427.29" y2="1622.75" xlink:href="#Безымянный_градиент_6"/><linearGradient id="Безымянный_градиент_7-8" x1="6706.27" y1="1776.92" x2="6243.72" y2="1187.83" xlink:href="#Безымянный_градиент_7"/><linearGradient id="Безымянный_градиент_5-8" x1="6368.51" y1="1758.82" x2="5607.66" y2="1253.06" xlink:href="#Безымянный_градиент_5"/><linearGradient id="Безымянный_градиент_6-9" x1="7633.07" y1="1841.1" x2="6276.29" y2="1645.73" xlink:href="#Безымянный_градиент_6"/><linearGradient id="Безымянный_градиент_7-9" x1="7555.27" y1="1799.9" x2="7092.72" y2="1210.81" xlink:href="#Безымянный_градиент_7"/><linearGradient id="Безымянный_градиент_5-9" x1="7217.51" y1="1781.8" x2="6456.66" y2="1276.03" xlink:href="#Безымянный_градиент_5"/><linearGradient id="Безымянный_градиент_6-10" x1="8482.07" y1="1864.08" x2="7125.29" y2="1668.71" xlink:href="#Безымянный_градиент_6"/><linearGradient id="Безымянный_градиент_7-10" x1="8404.27" y1="1822.88" x2="7941.72" y2="1233.79" xlink:href="#Безымянный_градиент_7"/><linearGradient id="Безымянный_градиент_5-10" x1="8066.51" y1="1804.77" x2="7305.66" y2="1299.01" xlink:href="#Безымянный_градиент_5"/><linearGradient id="Безымянный_градиент_6-11" x1="9331.07" y1="1887.06" x2="7974.29" y2="1691.68" xlink:href="#Безымянный_градиент_6"/><linearGradient id="Безымянный_градиент_7-11" x1="9253.27" y1="1845.85" x2="8790.72" y2="1256.76" xlink:href="#Безымянный_градиент_7"/><linearGradient id="Безымянный_градиент_5-11" x1="8915.51" y1="1827.75" x2="8154.66" y2="1321.99" xlink:href="#Безымянный_градиент_5"/><linearGradient id="Безымянный_градиент_6-12" x1="10180.07" y1="1910.03" x2="8823.29" y2="1714.66" xlink:href="#Безымянный_градиент_6"/><linearGradient id="Безымянный_градиент_7-12" x1="10102.27" y1="1868.83" x2="9639.72" y2="1279.74" xlink:href="#Безымянный_градиент_7"/><linearGradient id="Безымянный_градиент_5-12" x1="9764.51" y1="1850.73" x2="9003.66" y2="1344.96" xlink:href="#Безымянный_градиент_5"/><linearGradient id="Безымянный_градиент_6-13" x1="11029.07" y1="1933.01" x2="9672.29" y2="1737.64" xlink:href="#Безымянный_градиент_6"/><linearGradient id="Безымянный_градиент_7-13" x1="10951.27" y1="1891.81" x2="10488.72" y2="1302.72" xlink:href="#Безымянный_градиент_7"/><linearGradient id="Безымянный_градиент_5-13" x1="10613.51" y1="1873.7" x2="9852.66" y2="1367.94" xlink:href="#Безымянный_градиент_5"/><linearGradient id="Безымянный_градиент_6-14" x1="11878.07" y1="1955.99" x2="10521.29" y2="1760.62" xlink:href="#Безымянный_градиент_6"/><linearGradient id="Безымянный_градиент_7-14" x1="11800.27" y1="1914.79" x2="11337.72" y2="1325.69" xlink:href="#Безымянный_градиент_7"/><linearGradient id="Безымянный_градиент_5-14" x1="11462.51" y1="1896.68" x2="10701.66" y2="1390.92" xlink:href="#Безымянный_градиент_5"/><linearGradient id="Безымянный_градиент_6-15" x1="12727.07" y1="1978.97" x2="11370.29" y2="1783.59" xlink:href="#Безымянный_градиент_6"/><linearGradient id="Безымянный_градиент_7-15" x1="12649.27" y1="1937.76" x2="12186.72" y2="1348.67" xlink:href="#Безымянный_градиент_7"/><linearGradient id="Безымянный_градиент_5-15" x1="12311.51" y1="1919.66" x2="11550.66" y2="1413.9" xlink:href="#Безымянный_градиент_5"/><linearGradient id="Безымянный_градиент_6-16" x1="13576.07" y1="2001.94" x2="12219.29" y2="1806.57" xlink:href="#Безымянный_градиент_6"/><linearGradient id="Безымянный_градиент_7-16" x1="13498.27" y1="1960.74" x2="13035.72" y2="1371.65" xlink:href="#Безымянный_градиент_7"/><linearGradient id="Безымянный_градиент_5-16" x1="13160.51" y1="1942.64" x2="12399.66" y2="1436.87" xlink:href="#Безымянный_градиент_5"/><linearGradient id="Безымянный_градиент_6-17" x1="14425.07" y1="2024.92" x2="13068.29" y2="1829.55" xlink:href="#Безымянный_градиент_6"/><linearGradient id="Безымянный_градиент_7-17" x1="14347.27" y1="1983.72" x2="13884.72" y2="1394.63" xlink:href="#Безымянный_градиент_7"/><linearGradient id="Безымянный_градиент_5-17" x1="14009.51" y1="1965.61" x2="13248.66" y2="1459.85" xlink:href="#Безымянный_градиент_5"/><image id="image" width="720" height="720" xlink:href="../../Downloads/Telegram%20Desktop/megaphone.png"/></defs><polygon class="cls-1" points="1315.11 460.56 938.61 610.56 935.11 609.56 1315.11 458.56 1713.11 604.56 1713.11 607.56 1315.11 460.56"/><polygon class="cls-2" points="1712.98 605.36 1712.98 1182.77 1314.95 1034.13 1314.95 458.56 1712.98 605.36"/><polygon class="cls-3" points="935.28 609.79 935.28 1175.87 1314.95 1032.13 1314.95 458.56 935.28 609.79"/><use transform="translate(792.16 337.57) scale(1.39)" xlink:href="#image"/><polygon class="cls-4" points="1713.11 1184.81 1713.11 607.56 1315.11 756.16 1315.11 1360.56 1713.11 1184.81"/><polygon class="cls-5" points="935.11 1175.87 935.11 612.56 1315.11 755.56 1315.11 1360.56 935.11 1175.87"/><polygon class="cls-6" points="1713.11 605.56 1713.11 608.56 1315.11 756.56 935.11 614.06 935.11 610.56 1315.11 752.56 1713.11 605.56"/><polygon class="cls-1" points="2164.11 517.22 1787.61 667.22 1784.11 666.22 2164.11 515.22 2562.11 661.22 2562.11 664.22 2164.11 517.22"/><polygon class="cls-7" points="2561.98 662.01 2561.98 1239.43 2163.95 1090.79 2163.95 515.22 2561.98 662.01"/><polygon class="cls-8" points="1784.28 666.45 1784.28 1232.53 2163.95 1088.79 2163.95 515.22 1784.28 666.45"/><use transform="translate(1641.16 337.57) scale(1.39)" xlink:href="#image"/><polygon class="cls-9" points="2562.11 1241.47 2562.11 664.22 2164.11 812.82 2164.11 1417.22 2562.11 1241.47"/><polygon class="cls-10" points="1784.11 1232.53 1784.11 669.22 2164.11 812.22 2164.11 1417.22 1784.11 1232.53"/><polygon class="cls-6" points="2562.11 662.22 2562.11 665.22 2164.11 813.22 1784.11 670.72 1784.11 667.22 2164.11 809.22 2562.11 662.22"/><polygon class="cls-1" points="3013.11 573.87 2636.61 723.87 2633.11 722.87 3013.11 571.87 3411.11 717.87 3411.11 720.87 3013.11 573.87"/><polygon class="cls-11" points="3410.98 718.66 3410.98 1296.08 3012.95 1147.44 3012.95 571.87 3410.98 718.66"/><polygon class="cls-12" points="2633.28 723.1 2633.28 1289.18 3012.95 1145.44 3012.95 571.87 2633.28 723.1"/><use transform="translate(2489.16 337.57) scale(1.39)" xlink:href="#image"/><polygon class="cls-13" points="3411.11 1298.12 3411.11 720.87 3013.11 869.47 3013.11 1473.87 3411.11 1298.12"/><polygon class="cls-14" points="2633.11 1289.18 2633.11 725.87 3013.11 868.87 3013.11 1473.87 2633.11 1289.18"/><polygon class="cls-6" points="3411.11 718.87 3411.11 721.87 3013.11 869.87 2633.11 727.37 2633.11 723.87 3013.11 865.87 3411.11 718.87"/><use transform="translate(11837.16 337.57) scale(1.39)" xlink:href="#image"/><use transform="translate(12687.16 337.57) scale(1.39)" xlink:href="#image"/><use transform="translate(13519.16 337.57) scale(1.39)" xlink:href="#image"/><polygon class="cls-15" points="4259.98 775.32 4259.98 1352.73 3861.95 1204.09 3861.95 628.52 4259.98 775.32"/><polygon class="cls-1" points="3862.11 630.52 3485.61 780.52 3482.11 779.52 3862.11 628.52 4260.1 774.52 4260.1 777.52 3862.11 630.52"/><polygon class="cls-16" points="3482.28 779.75 3482.28 1345.83 3861.95 1202.09 3861.95 628.52 3482.28 779.75"/><use transform="translate(3331.16 337.57) scale(1.39)" xlink:href="#image"/><polygon class="cls-17" points="4260.1 1354.77 4260.1 777.52 3862.11 926.12 3862.11 1530.52 4260.1 1354.77"/><polygon class="cls-18" points="3482.11 1345.83 3482.11 782.52 3862.11 925.52 3862.11 1530.52 3482.11 1345.83"/><polygon class="cls-6" points="4260.1 775.52 4260.1 778.52 3862.11 926.52 3482.11 784.02 3482.11 780.52 3862.11 922.52 4260.1 775.52"/><polygon class="cls-1" points="4711.1 687.17 4334.61 837.17 4331.11 836.17 4711.1 685.17 5109.1 831.17 5109.1 834.17 4711.1 687.17"/><polygon class="cls-19" points="5108.98 831.97 5108.98 1409.38 4710.95 1260.74 4710.95 685.17 5108.98 831.97"/><polygon class="cls-20" points="4331.28 836.4 4331.28 1402.48 4710.95 1258.74 4710.95 685.17 4331.28 836.4"/><use transform="translate(4188.16 337.57) scale(1.39)" xlink:href="#image"/><polygon class="cls-21" points="5109.1 1411.42 5109.1 834.17 4711.1 982.77 4711.1 1587.17 5109.1 1411.42"/><polygon class="cls-22" points="4331.11 1402.48 4331.11 839.17 4711.1 982.17 4711.1 1587.17 4331.11 1402.48"/><polygon class="cls-6" points="5109.1 832.17 5109.1 835.17 4711.1 983.17 4331.11 840.67 4331.11 837.17 4711.1 979.17 5109.1 832.17"/><polygon class="cls-1" points="5560.1 743.82 5183.61 893.82 5180.11 892.82 5560.1 741.82 5958.1 887.82 5958.1 890.82 5560.1 743.82"/><polygon class="cls-23" points="5957.98 888.62 5957.98 1466.03 5559.95 1317.39 5559.95 741.82 5957.98 888.62"/><polygon class="cls-24" points="5180.28 893.05 5180.28 1459.13 5559.95 1315.39 5559.95 741.82 5180.28 893.05"/><use transform="translate(5037.16 337.57) scale(1.39)" xlink:href="#image"/><polygon class="cls-25" points="5958.1 1468.07 5958.1 890.82 5560.1 1039.42 5560.1 1643.82 5958.1 1468.07"/><polygon class="cls-26" points="5180.11 1459.13 5180.11 895.82 5560.1 1038.82 5560.1 1643.82 5180.11 1459.13"/><polygon class="cls-6" points="5958.1 887.82 5958.1 890.82 5560.1 1038.82 5180.11 896.32 5180.11 892.82 5560.1 1034.82 5958.1 887.82"/><polygon class="cls-1" points="6409.1 800.48 6032.61 950.48 6029.11 949.48 6409.1 798.48 6807.1 944.48 6807.1 947.48 6409.1 800.48"/><polygon class="cls-27" points="6806.98 945.27 6806.98 1522.68 6408.95 1374.05 6408.95 798.48 6806.98 945.27"/><polygon class="cls-28" points="6029.28 949.7 6029.28 1515.79 6408.95 1372.05 6408.95 798.48 6029.28 949.7"/><polygon class="cls-29" points="6807.1 1524.72 6807.1 947.48 6409.1 1096.08 6409.1 1700.47 6807.1 1524.72"/><use transform="translate(5892.16 337.57) scale(1.39)" xlink:href="#image"/><polygon class="cls-30" points="6029.11 1515.79 6029.11 952.48 6409.1 1095.47 6409.1 1700.47 6029.11 1515.79"/><polygon class="cls-6" points="6807.1 944.48 6807.1 947.48 6409.1 1095.47 6029.11 952.98 6029.11 949.48 6409.1 1091.47 6807.1 944.48"/><polygon class="cls-1" points="7258.1 857.13 6881.61 1007.13 6878.11 1006.13 7258.1 855.13 7656.1 1001.13 7656.1 1004.13 7258.1 857.13"/><polygon class="cls-31" points="7655.98 1001.92 7655.98 1579.34 7257.95 1430.7 7257.95 855.13 7655.98 1001.92"/><polygon class="cls-32" points="6878.28 1006.36 6878.28 1572.44 7257.95 1428.7 7257.95 855.13 6878.28 1006.36"/><use transform="translate(6741.16 337.57) scale(1.39)" xlink:href="#image"/><polygon class="cls-33" points="7656.1 1581.38 7656.1 1004.13 7258.1 1152.73 7258.1 1757.13 7656.1 1581.38"/><polygon class="cls-34" points="6878.11 1572.44 6878.11 1009.13 7258.1 1152.13 7258.1 1757.13 6878.11 1572.44"/><polygon class="cls-6" points="7656.1 1001.13 7656.1 1004.13 7258.1 1152.13 6878.11 1009.63 6878.11 1006.13 7258.1 1148.13 7656.1 1001.13"/><polygon class="cls-1" points="8107.1 913.78 7730.61 1063.78 7727.11 1062.78 8107.1 911.78 8505.1 1057.78 8505.1 1060.78 8107.1 913.78"/><polygon class="cls-35" points="8504.98 1058.58 8504.98 1635.99 8106.95 1487.35 8106.95 911.78 8504.98 1058.58"/><polygon class="cls-36" points="7727.28 1063.01 7727.28 1629.09 8106.95 1485.35 8106.95 911.78 7727.28 1063.01"/><polygon class="cls-37" points="8505.1 1638.03 8505.1 1060.78 8107.1 1209.38 8107.1 1813.78 8505.1 1638.03"/><polygon class="cls-38" points="7727.11 1629.09 7727.11 1065.78 8107.1 1208.78 8107.1 1813.78 7727.11 1629.09"/><polygon class="cls-6" points="8505.1 1057.78 8505.1 1060.78 8107.1 1208.78 7727.11 1066.28 7727.11 1062.78 8107.1 1204.78 8505.1 1057.78"/><polygon class="cls-39" points="9353.98 1115.23 9353.98 1692.64 8955.95 1544 8955.95 968.43 9353.98 1115.23"/><polygon class="cls-40" points="8576.28 1119.66 8576.28 1685.74 8955.95 1542 8955.95 968.43 8576.28 1119.66"/><polygon class="cls-41" points="9354.1 1694.68 9354.1 1117.43 8956.1 1266.03 8956.1 1870.43 9354.1 1694.68"/><polygon class="cls-42" points="8576.11 1685.74 8576.11 1122.43 8956.1 1265.43 8956.1 1870.43 8576.11 1685.74"/><polygon class="cls-1" points="8956.1 970.43 8579.61 1120.43 8576.11 1119.43 8956.1 968.43 9354.1 1114.43 9354.1 1117.43 8956.1 970.43"/><polygon class="cls-6" points="9354.1 1114.43 9354.1 1117.43 8956.1 1265.43 8576.11 1122.93 8576.11 1119.43 8956.1 1261.43 9354.1 1114.43"/><polygon class="cls-43" points="10202.98 1171.88 10202.98 1749.29 9804.95 1600.65 9804.95 1025.08 10202.98 1171.88"/><polygon class="cls-44" points="9425.28 1176.31 9425.28 1742.39 9804.95 1598.65 9804.95 1025.08 9425.28 1176.31"/><polygon class="cls-45" points="10203.1 1751.33 10203.1 1174.08 9805.1 1322.68 9805.1 1927.08 10203.1 1751.33"/><polygon class="cls-46" points="9425.11 1742.39 9425.11 1179.08 9805.1 1322.08 9805.1 1927.08 9425.11 1742.39"/><polygon class="cls-1" points="9805.1 1027.08 9428.61 1177.08 9425.11 1176.08 9805.1 1025.08 10203.1 1171.08 10203.1 1174.08 9805.1 1027.08"/><polygon class="cls-6" points="10203.1 1171.08 10203.1 1174.08 9805.1 1322.08 9425.11 1179.58 9425.11 1176.08 9805.1 1318.08 10203.1 1171.08"/><polygon class="cls-47" points="11051.98 1228.53 11051.98 1805.94 10653.95 1657.31 10653.95 1081.73 11051.98 1228.53"/><polygon class="cls-48" points="10274.28 1232.96 10274.28 1799.05 10653.95 1655.31 10653.95 1081.73 10274.28 1232.96"/><polygon class="cls-49" points="11052.1 1807.98 11052.1 1230.73 10654.1 1379.34 10654.1 1983.73 11052.1 1807.98"/><polygon class="cls-50" points="10274.11 1799.05 10274.11 1235.73 10654.1 1378.73 10654.1 1983.73 10274.11 1799.05"/><polygon class="cls-1" points="10654.1 1083.73 10277.61 1233.73 10274.11 1232.73 10654.1 1081.73 11052.1 1227.73 11052.1 1230.73 10654.1 1083.73"/><polygon class="cls-6" points="11052.1 1227.73 11052.1 1230.73 10654.1 1378.73 10274.11 1236.23 10274.11 1232.73 10654.1 1374.73 11052.1 1227.73"/><polygon class="cls-51" points="11900.98 1285.18 11900.98 1862.6 11502.95 1713.96 11502.95 1138.39 11900.98 1285.18"/><polygon class="cls-52" points="11123.28 1289.62 11123.28 1855.7 11502.95 1711.96 11502.95 1138.39 11123.28 1289.62"/><polygon class="cls-53" points="11901.1 1864.64 11901.1 1287.39 11503.1 1435.99 11503.1 2040.39 11901.1 1864.64"/><polygon class="cls-54" points="11123.11 1855.7 11123.11 1292.39 11503.1 1435.39 11503.1 2040.39 11123.11 1855.7"/><polygon class="cls-1" points="11503.1 1140.39 11126.61 1290.39 11123.11 1289.39 11503.1 1138.39 11901.1 1284.39 11901.1 1287.39 11503.1 1140.39"/><polygon class="cls-6" points="11901.1 1284.39 11901.1 1287.39 11503.1 1435.39 11123.11 1292.89 11123.11 1289.39 11503.1 1431.39 11901.1 1284.39"/><polygon class="cls-55" points="12749.98 1341.84 12749.98 1919.25 12351.95 1770.61 12351.95 1195.04 12749.98 1341.84"/><polygon class="cls-56" points="11972.28 1346.27 11972.28 1912.35 12351.95 1768.61 12351.95 1195.04 11972.28 1346.27"/><polygon class="cls-57" points="12750.1 1921.29 12750.1 1344.04 12352.1 1492.64 12352.1 2097.04 12750.1 1921.29"/><polygon class="cls-58" points="11972.11 1912.35 11972.11 1349.04 12352.1 1492.04 12352.1 2097.04 11972.11 1912.35"/><polygon class="cls-1" points="12352.1 1197.04 11975.61 1347.04 11972.11 1346.04 12352.1 1195.04 12750.1 1341.04 12750.1 1344.04 12352.1 1197.04"/><polygon class="cls-6" points="12750.1 1341.04 12750.1 1344.04 12352.1 1492.04 11972.11 1349.54 11972.11 1346.04 12352.1 1488.04 12750.1 1341.04"/><polygon class="cls-59" points="13598.98 1398.49 13598.98 1975.9 13200.95 1827.26 13200.95 1251.69 13598.98 1398.49"/><polygon class="cls-60" points="12821.28 1402.92 12821.28 1969 13200.95 1825.26 13200.95 1251.69 12821.28 1402.92"/><polygon class="cls-61" points="13599.1 1977.94 13599.1 1400.69 13201.1 1549.29 13201.1 2153.69 13599.1 1977.94"/><polygon class="cls-62" points="12821.11 1969 12821.11 1405.69 13201.1 1548.69 13201.1 2153.69 12821.11 1969"/><polygon class="cls-1" points="13201.1 1253.69 12824.61 1403.69 12821.11 1402.69 13201.1 1251.69 13599.1 1397.69 13599.1 1400.69 13201.1 1253.69"/><polygon class="cls-6" points="13599.1 1397.69 13599.1 1400.69 13201.1 1548.69 12821.11 1406.19 12821.11 1402.69 13201.1 1544.69 13599.1 1397.69"/><path class="cls-63" d="M14448,1455.14v577.41l-398-148.64V1308.34Z"/><path class="cls-64" d="M13670.28,1459.57v566.08L14050,1881.91V1308.34Z"/><path class="cls-65" d="M14448.11,2034.59V1457.34l-398,148.6v604.4Z"/><path class="cls-66" d="M13670.11,2025.65V1462.34l380,143v605Z"/><path class="cls-1" d="M14050.11,1310.34l-376.5,150-3.5-1,380-151,398,146v3Z"/><path class="cls-6" d="M14448.11,1454.34v3l-398,148-380-142.5v-3.5l380,142Z"/><path class="cls-67" d="M865,548.71v577.41l-398-148.64V401.91Z"/><path class="cls-68" d="M87.27,553.14v566.08L466.93,975.48V401.91Z"/><path class="cls-69" d="M865.09,1128.16V550.91l-398,148.6v604.4Z"/><path class="cls-70" d="M87.09,1119.22V555.91l380,143v605Z"/><path class="cls-1" d="M467.09,403.91l-376.5,150-3.5-1,380-151,398,146v3Z"/><path class="cls-6" d="M865.09,547.91v3l-398,148-380-142.5v-3.5l380,142Z"/><polygon class="cls-71" points="473.78 622.89 80.13 502.06 473.78 396.31 870.08 505.93 473.78 622.89"/><polygon class="cls-72" points="870.08 610.82 870.08 505.12 472.04 619.88 472.04 728.63 870.08 610.82"/><polygon class="cls-73" points="472.04 728.63 472.04 619.88 80.13 502.06 80.13 605.15 472.04 728.63"/><polygon class="cls-74" points="1322.78 599.91 929.13 479.08 1322.78 373.34 1719.08 482.95 1322.78 599.91"/><polygon class="cls-75" points="1719.08 587.84 1719.08 482.14 1321.04 596.9 1321.04 705.66 1719.08 587.84"/><polygon class="cls-76" points="1321.04 705.66 1321.04 596.9 929.13 479.08 929.13 582.17 1321.04 705.66"/><polygon class="cls-77" points="2171.78 576.93 1778.13 456.11 2171.78 350.36 2568.08 459.97 2171.78 576.93"/><polygon class="cls-78" points="2568.08 564.86 2568.08 459.17 2170.04 573.92 2170.04 682.68 2568.08 564.86"/><polygon class="cls-79" points="2170.04 682.68 2170.04 573.92 1778.13 456.11 1778.13 559.2 2170.04 682.68"/><polygon class="cls-80" points="3020.78 553.96 2627.13 433.13 3020.78 327.38 3417.08 437 3020.78 553.96"/><polygon class="cls-81" points="3417.08 541.88 3417.08 436.19 3019.04 550.95 3019.04 659.7 3417.08 541.88"/><polygon class="cls-82" points="3019.04 659.7 3019.04 550.95 2627.13 433.13 2627.13 536.22 3019.04 659.7"/><polygon class="cls-83" points="3869.78 530.98 3476.13 410.15 3869.78 304.41 4266.08 414.02 3869.78 530.98"/><polygon class="cls-84" points="4266.08 518.91 4266.08 413.21 3868.04 527.97 3868.04 636.73 4266.08 518.91"/><polygon class="cls-85" points="3868.04 636.73 3868.04 527.97 3476.13 410.15 3476.13 513.24 3868.04 636.73"/><polygon class="cls-86" points="4718.78 508 4325.13 387.18 4718.78 281.43 5115.08 391.04 4718.78 508"/><polygon class="cls-87" points="5115.08 495.93 5115.08 390.24 4717.04 504.99 4717.04 613.75 5115.08 495.93"/><polygon class="cls-88" points="4717.04 613.75 4717.04 504.99 4325.13 387.18 4325.13 490.27 4717.04 613.75"/><polygon class="cls-89" points="5567.78 485.03 5174.13 364.2 5567.78 258.45 5964.08 368.06 5567.78 485.03"/><polygon class="cls-90" points="5964.08 472.95 5964.08 367.26 5566.04 482.02 5566.04 590.77 5964.08 472.95"/><polygon class="cls-91" points="5566.04 590.77 5566.04 482.02 5174.13 364.2 5174.13 467.29 5566.04 590.77"/><polygon class="cls-92" points="6416.78 462.05 6023.13 341.22 6416.78 235.48 6813.08 345.09 6416.78 462.05"/><polygon class="cls-93" points="6813.08 449.98 6813.08 344.28 6415.04 459.04 6415.04 567.79 6813.08 449.98"/><polygon class="cls-94" points="6415.04 567.79 6415.04 459.04 6023.13 341.22 6023.13 444.31 6415.04 567.79"/><polygon class="cls-95" points="7265.78 439.07 6872.13 318.24 7265.78 212.5 7662.08 322.11 7265.78 439.07"/><polygon class="cls-96" points="7662.08 427 7662.08 321.31 7264.04 436.06 7264.04 544.82 7662.08 427"/><polygon class="cls-97" points="7264.04 544.82 7264.04 436.06 6872.13 318.24 6872.13 421.34 7264.04 544.82"/><polygon class="cls-98" points="8114.78 416.1 7721.13 295.27 8114.78 189.52 8511.08 299.13 8114.78 416.1"/><polygon class="cls-99" points="8511.08 404.02 8511.08 298.33 8113.04 413.09 8113.04 521.84 8511.08 404.02"/><polygon class="cls-100" points="8113.04 521.84 8113.04 413.09 7721.13 295.27 7721.13 398.36 8113.04 521.84"/><polygon class="cls-101" points="8963.78 393.12 8570.13 272.29 8963.78 166.54 9360.08 276.16 8963.78 393.12"/><polygon class="cls-102" points="9360.08 381.05 9360.08 275.35 8962.04 390.11 8962.04 498.86 9360.08 381.05"/><polygon class="cls-103" points="8962.04 498.86 8962.04 390.11 8570.13 272.29 8570.13 375.38 8962.04 498.86"/><polygon class="cls-104" points="9812.78 370.14 9419.13 249.31 9812.78 143.57 10209.08 253.18 9812.78 370.14"/><polygon class="cls-105" points="10209.08 358.07 10209.08 252.38 9811.04 367.13 9811.04 475.89 10209.08 358.07"/><polygon class="cls-106" points="9811.04 475.89 9811.04 367.13 9419.13 249.31 9419.13 352.4 9811.04 475.89"/><polygon class="cls-107" points="10661.78 347.17 10268.13 226.34 10661.78 120.59 11058.08 230.2 10661.78 347.17"/><polygon class="cls-108" points="11058.08 335.09 11058.08 229.4 10660.04 344.15 10660.04 452.91 11058.08 335.09"/><polygon class="cls-109" points="10660.04 452.91 10660.04 344.15 10268.13 226.34 10268.13 329.43 10660.04 452.91"/><polygon class="cls-110" points="11510.78 324.19 11117.13 203.36 11510.78 97.61 11907.08 207.23 11510.78 324.19"/><polygon class="cls-111" points="11907.08 312.12 11907.08 206.42 11509.04 321.18 11509.04 429.93 11907.08 312.12"/><polygon class="cls-112" points="11509.04 429.93 11509.04 321.18 11117.13 203.36 11117.13 306.45 11509.04 429.93"/><polygon class="cls-113" points="12359.78 301.21 11966.13 180.38 12359.78 74.64 12756.08 184.25 12359.78 301.21"/><polygon class="cls-114" points="12756.08 289.14 12756.08 183.44 12358.04 298.2 12358.04 406.96 12756.08 289.14"/><polygon class="cls-115" points="12358.04 406.96 12358.04 298.2 11966.13 180.38 11966.13 283.47 12358.04 406.96"/><polygon class="cls-116" points="13208.78 278.23 12815.13 157.41 13208.78 51.66 13605.08 161.27 13208.78 278.23"/><polygon class="cls-117" points="13605.08 266.16 13605.08 160.47 13207.04 275.22 13207.04 383.98 13605.08 266.16"/><polygon class="cls-118" points="13207.04 383.98 13207.04 275.22 12815.13 157.41 12815.13 260.5 13207.04 383.98"/><polygon class="cls-119" points="14057.78 255.26 13664.13 134.43 14057.78 28.68 14454.08 138.29 14057.78 255.26"/><polygon class="cls-120" points="14454.08 243.18 14454.08 137.49 14056.04 252.25 14056.04 361 14454.08 243.18"/><polygon class="cls-121" points="14056.04 361 14056.04 252.25 13664.13 134.43 13664.13 237.52 14056.04 361"/><use transform="translate(7593.16 337.57) scale(1.39)" xlink:href="#image"/><use transform="translate(8433.16 337.57) scale(1.39)" xlink:href="#image"/><use transform="translate(9291.16 337.57) scale(1.39)" xlink:href="#image"/><use transform="translate(10980.16 337.57) scale(1.39)" xlink:href="#image"/><use transform="translate(10131.16 337.57) scale(1.39)" xlink:href="#image"/></svg>