<svg width="372" height="226" viewBox="0 0 372 226" fill="none" xmlns="http://www.w3.org/2000/svg">
<g style="mix-blend-mode:multiply">
<ellipse cx="186" cy="151" rx="186" ry="75" fill="url(#paint0_radial)" fill-opacity="0.5"/>
</g>
<path d="M250 122.292V28L185 52.2732V151L250 122.292Z" fill="url(#paint1_radial)"/>
<g style="mix-blend-mode:multiply">
<path d="M250 36.383V34L186 51.7021V54L250 36.383Z" fill="url(#paint2_linear)" fill-opacity="0.8"/>
</g>
<path d="M123 120.425V28L185 52.2732V151L123 120.425Z" fill="url(#paint3_radial)"/>
<path d="M186.283 37L122 17.5842L186.283 0L251 17.5842L186.283 37Z" fill="url(#paint4_linear)"/>
<g style="mix-blend-mode:multiply">
<path d="M123 36.3631V34L185 51.5546V54L123 36.3631Z" fill="url(#paint5_linear)" fill-opacity="0.6"/>
</g>
<path d="M251 34.76V17.5L186 36.24V54L251 34.76Z" fill="url(#paint6_radial)"/>
<path d="M186 54V36.24L122 17V33.835L186 54Z" fill="url(#paint7_linear)"/>
<defs>
<radialGradient id="paint0_radial" cx="0" cy="0" r="1" gradientUnits="userSpaceOnUse" gradientTransform="translate(186 149.077) rotate(90) scale(38.9231 176)">
<stop stop-color="#0E295B"/>
<stop offset="1" stop-color="#0F347C" stop-opacity="0"/>
</radialGradient>
<radialGradient id="paint1_radial" cx="0" cy="0" r="1" gradientUnits="userSpaceOnUse" gradientTransform="translate(346 -1.00002) rotate(139.342) scale(438.959 258.928)">
<stop offset="0.00717756" stop-color="#FFF067"/>
<stop offset="0.327737" stop-color="#2F59AC"/>
<stop offset="0.555539" stop-color="#05122A"/>
<stop offset="1"/>
</radialGradient>
<linearGradient id="paint2_linear" x1="231.557" y1="64.9787" x2="223.903" y2="39.4629" gradientUnits="userSpaceOnUse">
<stop stop-color="#285FC9"/>
<stop offset="1"/>
</linearGradient>
<radialGradient id="paint3_radial" cx="0" cy="0" r="1" gradientUnits="userSpaceOnUse" gradientTransform="translate(269 96) rotate(163.583) scale(233.521 346.998)">
<stop stop-color="#E5E5E5"/>
<stop offset="0.394598" stop-color="#143A84"/>
<stop offset="0.62386" stop-color="#071A3D"/>
<stop offset="1"/>
</radialGradient>
<linearGradient id="paint4_linear" x1="244.5" y1="10.5" x2="68.1685" y2="51.103" gradientUnits="userSpaceOnUse">
<stop offset="0.0122501" stop-color="#346BD5"/>
<stop offset="1"/>
</linearGradient>
<linearGradient id="paint5_linear" x1="140.866" y1="64.7205" x2="148.605" y2="39.517" gradientUnits="userSpaceOnUse">
<stop stop-color="#285FC9"/>
<stop offset="1"/>
</linearGradient>
<radialGradient id="paint6_radial" cx="0" cy="0" r="1" gradientUnits="userSpaceOnUse" gradientTransform="translate(251 27) rotate(138.403) scale(131.046 230.21)">
<stop stop-color="#2557B8"/>
<stop offset="1"/>
</radialGradient>
<linearGradient id="paint7_linear" x1="182.5" y1="48" x2="88.7964" y2="46.967" gradientUnits="userSpaceOnUse">
<stop stop-color="#2553AC"/>
<stop offset="1"/>
</linearGradient>
</defs>
</svg>
